<svg id="visual" viewBox="0 0 1366 768" width="1366" height="768" xmlns="http://www.w3.org/2000/svg" xmlns:xlink="http://www.w3.org/1999/xlink" version="1.1"><rect x="0" y="0" width="1366" height="768" fill="#FFFFFF"></rect><path d="M0 574L28.5 567.5C57 561 114 548 171 563.2C228 578.3 285 621.7 341.8 642.3C398.7 663 455.3 661 512.2 640.5C569 620 626 581 683 569.5C740 558 797 574 854 594.7C911 615.3 968 640.7 1024.8 643.8C1081.7 647 1138.3 628 1195.2 613.3C1252 598.7 1309 588.3 1337.5 583.2L1366 578L1366 769L1337.5 769C1309 769 1252 769 1195.2 769C1138.3 769 1081.7 769 1024.8 769C968 769 911 769 854 769C797 769 740 769 683 769C626 769 569 769 512.2 769C455.3 769 398.7 769 341.8 769C285 769 228 769 171 769C114 769 57 769 28.5 769L0 769Z" fill="#888277" stroke-linecap="round" stroke-linejoin="miter"></path></svg>