<svg id="visual" viewBox="0 0 900 600" width="900" height="600" xmlns="http://www.w3.org/2000/svg" xmlns:xlink="http://www.w3.org/1999/xlink" version="1.1"><rect x="0" y="0" width="900" height="600" fill="#ffffff"></rect><path d="M0 501L21.5 492C43 483 86 465 128.8 454.7C171.7 444.3 214.3 441.7 257.2 451C300 460.3 343 481.7 385.8 483C428.7 484.3 471.3 465.7 514.2 454C557 442.3 600 437.7 642.8 434.5C685.7 431.3 728.3 429.7 771.2 441.3C814 453 857 478 878.5 490.5L900 503L900 601L878.5 601C857 601 814 601 771.2 601C728.3 601 685.7 601 642.8 601C600 601 557 601 514.2 601C471.3 601 428.7 601 385.8 601C343 601 300 601 257.2 601C214.3 601 171.7 601 128.8 601C86 601 43 601 21.5 601L0 601Z" fill="#A8A89E" stroke-linecap="round" stroke-linejoin="miter"></path></svg>