<svg id="visual" viewBox="0 0 1366 768" width="1366" height="768" xmlns="http://www.w3.org/2000/svg" xmlns:xlink="http://www.w3.org/1999/xlink" version="1.1"><rect x="0" y="0" width="1366" height="768" fill="#eaecee"></rect><path d="M0 462L32.5 467.5C65 473 130 484 195 495.2C260 506.3 325 517.7 390 524.5C455 531.3 520 533.7 585.2 528.7C650.3 523.7 715.7 511.3 780.8 506.3C846 501.3 911 503.7 976 495.8C1041 488 1106 470 1171 473.3C1236 476.7 1301 501.3 1333.5 513.7L1366 526L1366 769L1333.5 769C1301 769 1236 769 1171 769C1106 769 1041 769 976 769C911 769 846 769 780.8 769C715.7 769 650.3 769 585.2 769C520 769 455 769 390 769C325 769 260 769 195 769C130 769 65 769 32.5 769L0 769Z" fill="#9fa5a3"></path><path d="M0 601L32.5 601.8C65 602.7 130 604.3 195 603.2C260 602 325 598 390 591.3C455 584.7 520 575.3 585.2 565.3C650.3 555.3 715.7 544.7 780.8 536C846 527.3 911 520.7 976 530.3C1041 540 1106 566 1171 581.2C1236 596.3 1301 600.7 1333.5 602.8L1366 605L1366 769L1333.5 769C1301 769 1236 769 1171 769C1106 769 1041 769 976 769C911 769 846 769 780.8 769C715.7 769 650.3 769 585.2 769C520 769 455 769 390 769C325 769 260 769 195 769C130 769 65 769 32.5 769L0 769Z" fill="#8f9490"></path><path d="M0 639L32.5 627C65 615 130 591 195 592.3C260 593.7 325 620.3 390 631.3C455 642.3 520 637.7 585.2 628.5C650.3 619.3 715.7 605.7 780.8 595.2C846 584.7 911 577.3 976 578.8C1041 580.3 1106 590.7 1171 592.3C1236 594 1301 587 1333.5 583.5L1366 580L1366 769L1333.5 769C1301 769 1236 769 1171 769C1106 769 1041 769 976 769C911 769 846 769 780.8 769C715.7 769 650.3 769 585.2 769C520 769 455 769 390 769C325 769 260 769 195 769C130 769 65 769 32.5 769L0 769Z" fill="#80837d"></path><path d="M0 634L32.5 639.2C65 644.3 130 654.7 195 655.5C260 656.3 325 647.7 390 647.7C455 647.7 520 656.3 585.2 655.5C650.3 654.7 715.7 644.3 780.8 648.7C846 653 911 672 976 672C1041 672 1106 653 1171 653.5C1236 654 1301 674 1333.5 684L1366 694L1366 769L1333.5 769C1301 769 1236 769 1171 769C1106 769 1041 769 976 769C911 769 846 769 780.8 769C715.7 769 650.3 769 585.2 769C520 769 455 769 390 769C325 769 260 769 195 769C130 769 65 769 32.5 769L0 769Z" fill="#72726b"></path><path d="M0 717L32.5 716C65 715 130 713 195 714C260 715 325 719 390 722.3C455 725.7 520 728.3 585.2 726.8C650.3 725.3 715.7 719.7 780.8 716.2C846 712.7 911 711.3 976 709.2C1041 707 1106 704 1171 698.8C1236 693.7 1301 686.3 1333.5 682.7L1366 679L1366 769L1333.5 769C1301 769 1236 769 1171 769C1106 769 1041 769 976 769C911 769 846 769 780.8 769C715.7 769 650.3 769 585.2 769C520 769 455 769 390 769C325 769 260 769 195 769C130 769 65 769 32.5 769L0 769Z" fill="#65615a"></path></svg>