<svg xmlns="http://www.w3.org/2000/svg" width = "100%" height="100%" viewBox ="0 0 1024 1024">
<style>
.c0{ fill: rgb(255,255,255); stroke: rgb(255,255,255);}
.c1{ fill: rgb(136,130,119); stroke: rgb(136,130,119);}
.c2{ fill: rgb(241,241,240); stroke: rgb(241,241,240);}
.c3{ fill: rgb(243,243,242); stroke: rgb(243,243,242);}
.c4{ fill: rgb(242,242,241); stroke: rgb(242,242,241);}
.c5{ fill: rgb(244,244,243); stroke: rgb(244,244,243);}
.c6{ fill: rgb(245,245,244); stroke: rgb(245,245,244);}
.c7{ fill: rgb(246,246,245); stroke: rgb(246,246,245);}
.c8{ fill: rgb(247,247,246); stroke: rgb(247,247,246);}
.c9{ fill: rgb(248,248,247); stroke: rgb(248,248,247);}
.c10{ fill: rgb(249,249,248); stroke: rgb(249,249,248);}
.c11{ fill: rgb(250,250,249); stroke: rgb(250,250,249);}
.c12{ fill: rgb(251,251,250); stroke: rgb(251,251,250);}
.c13{ fill: rgb(252,252,251); stroke: rgb(252,252,251);}
.c14{ fill: rgb(253,253,252); stroke: rgb(253,253,252);}
.c15{ fill: rgb(254,254,253); stroke: rgb(254,254,253);}
.c16{ fill: rgb(255,255,254); stroke: rgb(255,255,254);}
</style>
<g transform="scale(0.1 0.1)" stroke-width="10">
<path d="M 5, 0c 2467,0 4933,0 7400,0c 683,0 1367,0 2050,0c 187,0 373,0 560,0c 56,0 215,-5 220,0c 9,9 0,170 0,240c 0,210 0,420 0,630c 0,760 0,1520 0,2280c 0,1750 0,3500 0,5250c 0,450 0,900 0,1350c 0,106 14,479 -5,485c -36,12 -128,0 -170,0c -18,0 -99,11 -110,0c -5,-5 -6,-29 -10,-35c -2,-3 -8,-2 -10,-5c -5,-7 -5,-28 -10,-35c -2,-3 -8,-2 -10,-5c -15,-22 -15,-53 -30,-75c -2,-3 -8,-2 -10,-5c -5,-7 -5,-28 -10,-35c -7,-11 -22,-23 -30,-35c -15,-22 -15,-53 -30,-75c -8,-12 -23,-24 -30,-35c -5,-7 -5,-28 -10,-35c -8,-12 -23,-24 -30,-35c -4,-6 -1,-14 -5,-20c -3,-5 -12,-5 -15,-10c -4,-6 -1,-14 -5,-20c -3,-5 -12,-5 -15,-10c -4,-6 -1,-14 -5,-20c -3,-5 -12,-5 -15,-10c -5,-7 -5,-28 -10,-35c -14,-20 -36,-35 -50,-55c -4,-6 -1,-14 -5,-20c -8,-11 -3,2 -15,-10c -15,-15 -19,-39 -30,-55c -6,-9 -24,-16 -30,-25c -4,-6 -1,-14 -5,-20c -8,-11 -3,2 -15,-10c -8,-8 -5,-18 -10,-25c -6,-9 -22,-17 -30,-25c -8,-8 -5,-18 -10,-25c -6,-9 -22,-17 -30,-25c -8,-8 -5,-18 -10,-25c -11,-17 -39,-28 -50,-45c -4,-6 -1,-14 -5,-20c -18,-27 -57,-43 -75,-70c -4,-6 -1,-14 -5,-20c -15,-23 -182,-177 -215,-210c -24,-24 -58,-72 -85,-90c -7,-5 -17,-2 -25,-10c -21,-21 -40,-54 -65,-70c -7,-5 -17,-2 -25,-10c -8,-8 -16,-24 -25,-30c -7,-5 -17,-2 -25,-10c -10,-10 -18,-27 -30,-35c -6,-4 -14,-1 -20,-5c -11,-7 -18,-27 -30,-35c -6,-4 -14,-1 -20,-5c -11,-7 -18,-27 -30,-35c -6,-4 -14,-1 -20,-5c -9,-6 -16,-24 -25,-30c -11,-8 -44,-23 -55,-30c -9,-6 -16,-24 -25,-30c -7,-5 -17,-2 -25,-10c -21,-21 -169,-121 -195,-130c -9,-3 -14,-16 -20,-20c -7,-5 -28,-5 -35,-10c -5,-3 -5,-12 -10,-15c -6,-4 -14,-1 -20,-5c -5,-3 -5,-12 -10,-15c -6,-4 -14,-1 -20,-5c -11,-7 -23,-22 -35,-30c -7,-5 -28,-5 -35,-10c -11,-7 -23,-22 -35,-30c -22,-15 -53,-15 -75,-30c -12,-8 -24,-23 -35,-30c -7,-5 -28,-5 -35,-10c -3,-2 -2,-8 -5,-10c -22,-15 -53,-15 -75,-30c -3,-2 -2,-8 -5,-10c -7,-5 -28,-5 -35,-10c -3,-2 -2,-8 -5,-10c -7,-5 -28,-5 -35,-10c -3,-2 -2,-8 -5,-10c -22,-15 -53,-15 -75,-30c -3,-2 -2,-8 -5,-10c -11,-7 -36,-4 -45,-10c -3,-2 -2,-8 -5,-10c -7,-5 -28,-5 -35,-10c -9,-6 -16,-17 -30,-20c -6,-2 -14,4 -20,0c -3,-2 -2,-8 -5,-10c -7,-5 -28,-5 -35,-10c -9,-6 -16,-17 -30,-20c -6,-2 -14,4 -20,0c -9,-6 -16,-17 -30,-20c -6,-2 -14,4 -20,0c -9,-6 -16,-17 -30,-20c -6,-2 -14,4 -20,0c -9,-6 -16,-17 -30,-20c -6,-2 -14,4 -20,0c -9,-6 -16,-17 -30,-20c -6,-2 -14,4 -20,0c -3,-2 -2,-8 -5,-10c -12,-8 -43,-2 -55,-10c -9,-6 -16,-17 -30,-20c -6,-2 -14,4 -20,0c -3,-2 -2,-8 -5,-10c -12,-8 -43,-2 -55,-10c -3,-2 -2,-8 -5,-10c -2,-1 -114,-29 -115,-30c -3,-2 -2,-8 -5,-10c -12,-8 -43,-2 -55,-10c -3,-2 -2,-8 -5,-10c -6,-4 -23,2 -30,0c -28,-9 -47,-23 -75,-30c -7,-2 -24,4 -30,0c -3,-2 -2,-8 -5,-10c -16,-11 -58,1 -75,-10c -3,-2 -2,-8 -5,-10c -15,-10 -51,-1 -65,-10c -3,-2 -2,-8 -5,-10c -6,-4 -23,2 -30,0c -46,-15 57,8 -15,-10c -7,-2 -24,4 -30,0c -3,-2 -2,-8 -5,-10c -9,-6 -30,3 -40,0c -46,-15 57,8 -15,-10c -10,-2 -32,6 -40,0c -3,-2 -2,-8 -5,-10c -9,-6 -74,-3 -85,-10c -3,-2 -2,-8 -5,-10c -9,-6 -30,3 -40,0c -46,-15 57,8 -15,-10c -12,-3 -40,7 -50,0c -3,-2 -2,-8 -5,-10c -11,-7 -37,4 -50,0c -46,-15 57,8 -15,-10c -10,-2 -32,6 -40,0c -3,-2 -2,-8 -5,-10c -11,-7 -37,4 -50,0c -46,-15 57,8 -15,-10c -15,-4 -47,8 -60,0c -3,-2 -2,-8 -5,-10c -13,-9 -45,5 -60,0c -46,-15 57,8 -15,-10c -15,-4 -47,8 -60,0c -3,-2 -2,-8 -5,-10c -22,-15 -74,9 -100,0c -46,-15 57,8 -15,-10c -23,-6 -71,13 -90,0c -3,-2 -2,-8 -5,-10c -24,-16 -82,9 -110,0c -46,-15 57,8 -15,-10c -32,-8 -140,13 -160,0c -3,-2 -2,-8 -5,-10c -14,-9 -199,0 -230,0c -63,0 -296,-11 -340,0c -72,18 31,-5 -15,10c -33,11 -137,-15 -160,0c -3,2 -2,8 -5,10c -14,9 -88,-5 -110,0c -72,18 31,-5 -15,10c -23,8 -70,-13 -90,0c -3,2 -2,8 -5,10c -21,14 -75,-6 -100,0c -72,18 31,-5 -15,10c -15,5 -47,-9 -60,0c -3,2 -2,8 -5,10c -13,8 -45,-4 -60,0c -72,18 31,-5 -15,10c -15,5 -47,-9 -60,0c -3,2 -2,8 -5,10c -10,7 -38,-3 -50,0c -72,18 31,-5 -15,10c -13,4 -39,-7 -50,0c -3,2 -2,8 -5,10c -13,9 -93,2 -105,10c -3,2 -2,8 -5,10c -8,6 -30,-2 -40,0c -72,18 31,-5 -15,10c -7,2 -24,-4 -30,0c -3,2 -2,8 -5,10c -11,7 -84,3 -95,10c -3,2 -2,8 -5,10c -8,6 -30,-2 -40,0c -72,18 31,-5 -15,10c -7,2 -24,-4 -30,0c -3,2 -2,8 -5,10c -6,4 -23,-2 -30,0c -72,18 31,-5 -15,10c -7,2 -24,-4 -30,0c -3,2 -2,8 -5,10c -15,10 -51,1 -65,10c -3,2 -2,8 -5,10c -6,4 -23,-2 -30,0c -72,18 31,-5 -15,10c -7,2 -24,-4 -30,0c -3,2 -2,8 -5,10c -12,8 -43,2 -55,10c -3,2 -2,8 -5,10c -6,4 -23,-2 -30,0c -72,18 31,-5 -15,10c -6,2 -14,-4 -20,0c -3,2 -2,8 -5,10c -12,8 -43,2 -55,10c -3,2 -2,8 -5,10c -12,8 -43,2 -55,10c -3,2 -2,8 -5,10c -12,8 -43,2 -55,10c -3,2 -2,8 -5,10c -12,8 -43,2 -55,10c -8,6 -18,16 -30,20c -6,2 -14,-4 -20,0c -3,2 -2,8 -5,10c -12,8 -43,2 -55,10c -3,2 -2,8 -5,10c -11,7 -36,4 -45,10c -8,6 -18,16 -30,20c -6,2 -14,-4 -20,0c -8,6 -18,16 -30,20c -6,2 -14,-4 -20,0c -8,6 -18,16 -30,20c -6,2 -14,-4 -20,0c -3,2 -2,8 -5,10c -22,15 -106,37 -125,50c -3,2 -2,8 -5,10c -11,7 -36,4 -45,10c -3,2 -2,8 -5,10c -7,5 -28,5 -35,10c -3,2 -2,8 -5,10c -7,5 -28,5 -35,10c -3,2 -2,8 -5,10c -22,15 -53,15 -75,30c -3,2 -2,8 -5,10c -7,5 -28,5 -35,10c -3,2 -2,8 -5,10c -7,5 -28,5 -35,10c -3,2 -2,8 -5,10c -7,5 -28,5 -35,10c -3,2 -2,8 -5,10c -7,5 -28,5 -35,10c -12,8 -24,23 -35,30c -7,5 -28,5 -35,10c -11,7 -23,22 -35,30c -19,12 -41,13 -60,25c -5,3 -5,12 -10,15c -7,5 -28,5 -35,10c -23,15 -44,36 -65,50c -6,4 -14,1 -20,5c -5,3 -5,12 -10,15c -12,8 -51,20 -65,30c -9,6 -16,24 -25,30c -6,4 -14,1 -20,5c -5,3 -5,12 -10,15c -6,4 -14,1 -20,5c -5,3 -5,12 -10,15c -6,4 -14,1 -20,5c -5,3 -5,12 -10,15c -6,4 -14,1 -20,5c -5,3 -5,12 -10,15c -11,7 -44,22 -55,30c -9,6 -16,24 -25,30c -11,7 -44,22 -55,30c -9,6 -17,22 -25,30c -8,8 -18,5 -25,10c -9,6 -17,22 -25,30c -8,8 -18,5 -25,10c -9,6 -17,22 -25,30c -8,8 -18,5 -25,10c -9,6 -17,22 -25,30c -14,14 -25,15 -40,25c -27,18 -43,57 -70,75c -6,4 -14,1 -20,5c -10,7 -293,290 -300,300c -5,7 -2,17 -10,25c -21,21 -54,40 -70,65c -5,7 -2,17 -10,25c -10,10 -27,18 -35,30c -4,6 -1,14 -5,20c -7,11 -27,18 -35,30c -4,6 -1,14 -5,20c -7,11 -27,18 -35,30c -4,6 -1,14 -5,20c -6,9 -24,16 -30,25c -8,11 -23,44 -30,55c -3,5 -12,5 -15,10c -4,6 -1,14 -5,20c -6,9 -24,16 -30,25c -2,3 1,7 0,10c -4,13 -18,15 -25,25c -4,6 -1,14 -5,20c -3,5 -12,5 -15,10c -4,6 -1,14 -5,20c -21,31 -48,62 -70,95c -12,18 -49,103 -50,105c -3,5 -12,5 -15,10c -12,19 -13,41 -25,60c -7,11 -22,23 -30,35c -15,22 -15,53 -30,75c -2,3 -8,2 -10,5c -5,7 -5,28 -10,35c -2,3 -8,2 -10,5c -5,7 -5,28 -10,35c -2,3 -8,2 -10,5c -6,10 -16,52 -25,55c -36,12 -128,0 -170,0c -18,0 -99,11 -110,0c -5,-5 0,-164 0,-220c 0,-187 0,-373 0,-560c 0,-683 0,-1367 0,-2050c 0,-2467 0,-4933 0,-7400z" class="c0"/>
<path d="M 295, 10220c -2,2 -3,3 -5,5z" class="c14"/>
<path d="M 295, 10230c -2,2 -3,3 -5,5z" class="c2"/>
<path d="M 305, 10200c -2,2 -3,3 -5,5z" class="c14"/>
<path d="M 305, 10210c -2,2 -3,3 -5,5z" class="c2"/>
<path d="M 305, 10220c 8,-16 21,-34 25,-50c 2,-6 -4,-14 0,-20c 2,-3 8,-2 10,-5c 5,-7 5,-28 10,-35c 2,-3 8,-2 10,-5c 5,-8 23,-55 30,-65c 2,-3 8,-2 10,-5c 5,-7 5,-28 10,-35c 2,-3 8,-2 10,-5c 5,-7 5,-28 10,-35c 8,-12 23,-24 30,-35c 5,-7 5,-28 10,-35c 3,-5 12,-5 15,-10c 4,-6 1,-14 5,-20c 7,-11 22,-23 30,-35c 5,-7 5,-28 10,-35c 2,-3 12,-5 15,-10c 4,-6 1,-14 5,-20c 2,-3 12,-5 15,-10c 4,-6 1,-14 5,-20c 12,-17 21,-18 30,-45c 6,-17 49,-54 60,-70c 8,-11 23,-44 30,-55c 3,-5 12,-5 15,-10c 4,-6 1,-14 5,-20c 6,-9 24,-16 30,-25c 5,-7 2,-17 10,-25c 10,-10 27,-18 35,-30c 4,-6 1,-14 5,-20c 7,-11 27,-18 35,-30c 4,-6 1,-14 5,-20c 7,-11 27,-18 35,-30c 4,-6 1,-14 5,-20c 18,-27 57,-43 75,-70c 4,-6 1,-14 5,-20c 11,-16 263,-263 300,-300c 8,-8 18,-5 25,-10c 25,-17 40,-53 65,-70c 6,-4 14,-1 20,-5c 12,-8 20,-25 30,-35c 8,-8 18,-5 25,-10c 17,-11 28,-39 45,-50c 6,-4 14,-1 20,-5c 12,-8 19,-28 30,-35c 11,-7 44,-22 55,-30c 9,-6 16,-24 25,-30c 6,-4 14,-1 20,-5c 12,-8 19,-28 30,-35c 6,-4 14,-1 20,-5c 5,-3 5,-12 10,-15c 6,-4 14,-1 20,-5c 11,-8 -2,-3 10,-15c 7,-7 103,-62 115,-70c 12,-8 70,-57 80,-60c 27,-9 28,-18 45,-30c 6,-4 14,-1 20,-5c 5,-3 5,-12 10,-15c 7,-5 28,-5 35,-10c 12,-8 24,-23 35,-30c 6,-4 14,-1 20,-5c 5,-3 5,-12 10,-15c 22,-15 53,-15 75,-30c 12,-8 24,-23 35,-30c 19,-12 41,-13 60,-25c 5,-3 5,-12 10,-15c 7,-5 28,-5 35,-10c 3,-2 2,-8 5,-10c 7,-5 28,-5 35,-10c 3,-2 2,-8 5,-10c 7,-5 28,-5 35,-10c 3,-2 2,-8 5,-10c 22,-15 53,-15 75,-30c 3,-2 2,-8 5,-10c 7,-5 28,-5 35,-10c 3,-2 2,-8 5,-10c 9,-6 34,-3 45,-10c 3,-2 2,-8 5,-10c 16,-10 104,-36 125,-50c 3,-2 2,-8 5,-10c 6,-4 14,2 20,0c 14,-3 21,-14 30,-20c 6,-4 14,2 20,0c 14,-3 21,-14 30,-20c 6,-4 14,2 20,0c 14,-3 21,-14 30,-20c 6,-4 14,2 20,0c 14,-3 21,-14 30,-20c 9,-6 34,-3 45,-10c 3,-2 2,-8 5,-10c 12,-8 43,-2 55,-10c 8,-6 18,-16 30,-20c 6,-2 14,4 20,0c 3,-2 2,-8 5,-10c 12,-8 43,-2 55,-10c 3,-2 2,-8 5,-10c 12,-8 43,-2 55,-10c 3,-2 2,-8 5,-10c 12,-8 43,-2 55,-10c 3,-2 2,-8 5,-10c 12,-8 43,-2 55,-10c 3,-2 2,-8 5,-10c 6,-4 23,2 30,0c 72,-18 -31,5 15,-10c 6,-2 14,4 20,0c 3,-2 2,-8 5,-10c 12,-8 43,-2 55,-10c 3,-2 2,-8 5,-10c 6,-4 23,2 30,0c 72,-18 -31,5 15,-10c 7,-2 24,4 30,0c 3,-2 2,-8 5,-10c 17,-11 59,1 75,-10c 3,-2 2,-8 5,-10c 17,-11 59,1 75,-10c 3,-2 2,-8 5,-10c 11,-7 76,-4 85,-10c 3,-2 2,-8 5,-10c 8,-6 30,2 40,0c 72,-18 -31,5 15,-10c 10,-3 31,6 40,0c 3,-2 2,-8 5,-10c 6,-4 23,2 30,0c 72,-18 -31,5 15,-10c 13,-4 39,7 50,0c 3,-2 2,-8 5,-10c 8,-6 30,2 40,0c 72,-18 -31,5 15,-10c 13,-4 39,7 50,0c 3,-2 2,-8 5,-10c 10,-7 38,3 50,0c 72,-18 -31,5 15,-10c 13,-4 39,7 50,0c 3,-2 2,-8 5,-10c 16,-11 119,1 135,-10c 3,-2 2,-8 5,-10c 17,-11 60,5 80,0c 72,-18 -31,5 15,-10c 23,-8 70,13 90,0c 3,-2 2,-8 5,-10c 21,-14 75,6 100,0c 72,-18 -31,5 15,-10c 28,-9 120,13 140,0c 3,-2 2,-8 5,-10c 13,-9 182,0 210,0c 40,0 80,0 120,0c 10,0 40,-13 45,-10c 19,13 -10,10 15,10c 56,0 306,-11 340,0c 46,15 -57,-8 15,10c 28,7 122,-12 140,0c 3,2 2,8 5,10c 13,9 193,2 205,10c 3,2 2,8 5,10c 18,12 59,-7 80,0c 46,15 -57,-8 15,10c 15,4 47,-8 60,0c 3,2 2,8 5,10c 13,9 45,-5 60,0c 46,15 -57,-8 15,10c 12,3 40,-7 50,0c 3,2 2,8 5,10c 14,9 101,1 115,10c 3,2 2,8 5,10c 9,6 30,-3 40,0c 46,15 -57,-8 15,10c 12,3 40,-7 50,0c 3,2 2,8 5,10c 11,7 76,4 85,10c 3,2 2,8 5,10c 9,6 30,-3 40,0c 46,15 -57,-8 15,10c 10,2 32,-6 40,0c 3,2 2,8 5,10c 6,4 23,-2 30,0c 46,15 -57,-8 15,10c 7,2 24,-4 30,0c 3,2 2,8 5,10c 6,4 23,-2 30,0c 46,15 -57,-8 15,10c 7,2 24,-4 30,0c 3,2 2,8 5,10c 6,4 23,-2 30,0c 46,15 -57,-8 15,10c 7,2 24,-4 30,0c 3,2 2,8 5,10c 15,10 51,1 65,10c 3,2 2,8 5,10c 12,8 43,2 55,10c 3,2 2,8 5,10c 6,4 23,-2 30,0c 28,9 47,23 75,30c 6,2 14,-4 20,0c 3,2 2,8 5,10c 2,1 114,29 115,30c 3,2 2,8 5,10c 12,8 43,2 55,10c 3,2 2,8 5,10c 28,19 67,11 95,30c 3,2 2,8 5,10c 6,4 14,-2 20,0c 12,4 22,14 30,20c 6,4 14,-2 20,0c 12,4 22,14 30,20c 6,4 14,-2 20,0c 12,4 22,14 30,20c 9,6 34,3 45,10c 3,2 2,8 5,10c 9,6 34,3 45,10c 3,2 2,8 5,10c 7,5 28,5 35,10c 3,2 2,8 5,10c 9,6 34,3 45,10c 3,2 2,8 5,10c 7,5 28,5 35,10c 3,2 2,8 5,10c 11,7 36,4 45,10c 3,2 2,8 5,10c 22,15 53,15 75,30c 3,2 2,8 5,10c 7,5 28,5 35,10c 3,2 2,8 5,10c 7,5 28,5 35,10c 3,2 2,8 5,10c 7,5 28,5 35,10c 11,7 23,22 35,30c 22,15 53,15 75,30c 5,3 5,12 10,15c 19,12 41,13 60,25c 11,7 23,22 35,30c 7,5 28,5 35,10c 5,3 5,12 10,15c 6,4 14,1 20,5c 5,3 5,12 10,15c 6,4 14,1 20,5c 11,7 23,22 35,30c 7,5 28,5 35,10c 15,10 26,25 40,35c 6,4 14,1 20,5c 5,3 5,12 10,15c 6,4 14,1 20,5c 5,3 5,12 10,15c 6,4 14,1 20,5c 5,3 5,12 10,15c 16,10 35,15 50,25c 9,6 16,24 25,30c 16,11 40,15 55,30c 12,12 47,47 60,55c 6,4 14,1 20,5c 9,6 16,24 25,30c 7,5 17,2 25,10c 6,6 78,73 80,75c 6,4 14,1 20,5c 17,11 28,39 45,50c 7,5 17,2 25,10c 16,16 30,42 50,55c 6,4 14,1 20,5c 11,7 18,27 30,35c 45,30 292,297 350,355c 8,8 5,18 10,25c 6,9 22,17 30,25c 8,8 5,18 10,25c 6,9 22,17 30,25c 8,8 5,18 10,25c 6,9 22,17 30,25c 8,8 5,18 10,25c 6,9 22,17 30,25c 15,15 19,39 30,55c 6,9 24,16 30,25c 4,6 1,14 5,20c 8,11 3,-2 15,10c 10,10 42,72 50,85c 9,14 35,34 40,50c 1,2 32,61 35,65c 3,5 12,5 15,10c 5,7 5,28 10,35c 4,6 17,11 20,20c 11,32 32,58 50,85c 15,22 15,53 30,75c 8,12 23,24 30,35c 13,20 18,67 30,85c 2,3 8,2 10,5c 4,6 21,48 20,50c -1,3 -429,5 -1355,5c -1290,0 -2580,0 -3870,0c -1457,0 -2913,0 -4370,0c -15,0 -40,7 -40,-10z" class="c1"/>
<path d="M 315, 10180c -2,2 -3,3 -5,5z" class="c12"/>
<path d="M 315, 10190c -2,2 -3,3 -5,5z" class="c2"/>
<path d="M 325, 10160c -2,2 -3,3 -5,5z" class="c8"/>
<path d="M 325, 10170c -2,2 -3,3 -5,5z" class="c2"/>
<path d="M 335, 10140c -2,2 -3,3 -5,5z" class="c3"/>
<path d="M 345, 10120c -2,2 -3,3 -5,5z" class="c3"/>
<path d="M 355, 10100c -2,2 -3,3 -5,5z" class="c3"/>
<path d="M 365, 10080c -2,2 -3,3 -5,5z" class="c3"/>
<path d="M 375, 10060c -2,2 -3,3 -5,5z" class="c3"/>
<path d="M 385, 10040c -2,2 -3,3 -5,5z" class="c6"/>
<path d="M 385, 10050c -2,2 -3,3 -5,5z" class="c2"/>
<path d="M 395, 10020c -2,2 -3,3 -5,5z" class="c13"/>
<path d="M 395, 10030c -2,2 -3,3 -5,5z" class="c2"/>
<path d="M 405, 10010c -2,2 -3,3 -5,5z" class="c2"/>
<path d="M 415, 9990c -2,2 -3,3 -5,5z" class="c2"/>
<path d="M 425, 9970c -2,2 -3,3 -5,5z" class="c2"/>
<path d="M 435, 9950c -2,2 -3,3 -5,5z" class="c6"/>
<path d="M 445, 9930c -2,2 -3,3 -5,5z" class="c13"/>
<path d="M 445, 9940c -2,2 -3,3 -5,5z" class="c2"/>
<path d="M 455, 9920c -2,2 -3,3 -5,5z" class="c2"/>
<path d="M 465, 9900c -2,2 -3,3 -5,5z" class="c2"/>
<path d="M 475, 9880c 6,-13 13,-13 -5,5z" class="c2"/>
<path d="M 485, 9860c -2,2 -3,3 -5,5z" class="c9"/>
<path d="M 495, 9840c -2,2 -3,3 -5,5z" class="c15"/>
<path d="M 495, 9850c -2,2 -3,3 -5,5z" class="c2"/>
<path d="M 505, 9830c 6,-13 13,-13 -5,5z" class="c2"/>
<path d="M 515, 9810c -2,2 -3,3 -5,5z" class="c13"/>
<path d="M 525, 9800c -2,2 -3,3 -5,5z" class="c2"/>
<path d="M 535, 9780c -2,2 -3,3 -5,5z" class="c10"/>
<path d="M 545, 9770c -2,2 -3,3 -5,5z" class="c2"/>
<path d="M 555, 9750c -2,2 -3,3 -5,5z" class="c7"/>
<path d="M 565, 9740c -2,2 -3,3 -5,5z" class="c2"/>
<path d="M 575, 9720c 6,-13 13,-13 -5,5z" class="c2"/>
<path d="M 585, 9700c -2,2 -3,3 -5,5z" class="c15"/>
<path d="M 595, 9690c -2,2 -3,3 -5,5z" class="c2"/>
<path d="M 605, 9670c -2,2 -3,3 -5,5z" class="c13"/>
<path d="M 615, 9660c 6,-13 13,-13 -5,5z" class="c2"/>
<path d="M 635, 9630c -2,2 -3,3 -5,5z" class="c11"/>
<path d="M 645, 9620c 6,-13 13,-13 -5,5z" class="c2"/>
<path d="M 665, 9590c -2,2 -3,3 -5,5z" class="c8"/>
<path d="M 675, 9580c 6,-13 13,-13 -5,5z" class="c2"/>
<path d="M 685, 9560c -2,2 -3,3 -5,5z" class="c15"/>
<path d="M 695, 9550c 6,-13 13,-13 -5,5z" class="c2"/>
<path d="M 715, 9520c -2,2 -3,3 -5,5z" class="c11"/>
<path d="M 725, 9510c 6,-13 13,-13 -5,5z" class="c2"/>
<path d="M 745, 9480c -2,2 -3,3 -5,5z" class="c14"/>
<path d="M 755, 9470c -2,2 -3,3 -5,5z" class="c6"/>
<path d="M 765, 9460c 9,-18 36,-36 -5,5z" class="c2"/>
<path d="M 785, 9430c -2,2 -3,3 -5,5z" class="c15"/>
<path d="M 795, 9420c -2,2 -3,3 -5,5z" class="c6"/>
<path d="M 805, 9410c 9,-18 36,-36 -5,5z" class="c2"/>
<path d="M 825, 9380c -2,2 -3,3 -5,5z" class="c15"/>
<path d="M 835, 9370c -2,2 -3,3 -5,5z" class="c9"/>
<path d="M 845, 9360c 9,-18 36,-36 -5,5z" class="c2"/>
<path d="M 875, 9320c -2,2 -3,3 -5,5z" class="c14"/>
<path d="M 885, 9310c -2,2 -3,3 -5,5z" class="c10"/>
<path d="M 895, 9300c -2,2 -3,3 -5,5z" class="c7"/>
<path d="M 905, 9290c 16,-32 77,-77 -5,5z" class="c2"/>
<path d="M 955, 9230c -2,2 -3,3 -5,5z" class="c14"/>
<path d="M 965, 9220c -2,2 -3,3 -5,5z" class="c10"/>
<path d="M 975, 9210c -2,2 -3,3 -5,5z" class="c4"/>
<path d="M 985, 9200c 9,-18 174,-181 195,-195c 13,-9 42,-44 35,-30c -6,11 -207,202 -235,230z" class="c2"/>
<path d="M 1225, 8960c -2,2 -3,3 -5,5z" class="c6"/>
<path d="M 1235, 8950c -2,2 -3,3 -5,5z" class="c9"/>
<path d="M 1245, 8940c -2,2 -3,3 -5,5z" class="c13"/>
<path d="M 1255, 8930c -2,2 -3,3 -5,5z" class="c16"/>
<path d="M 1275, 8920c 10,-20 60,-65 50,-45c -8,17 -41,36 -55,50z" class="c2"/>
<path d="M 1335, 8860c -2,2 -3,3 -5,5z" class="c9"/>
<path d="M 1345, 8850c -2,2 -3,3 -5,5z" class="c16"/>
<path d="M 1355, 8850c 9,-18 36,-36 -5,5z" class="c2"/>
<path d="M 1385, 8820c -2,2 -3,3 -5,5z" class="c4"/>
<path d="M 1395, 8810c -2,2 -3,3 -5,5z" class="c11"/>
<path d="M 1405, 8800c -2,2 -3,3 -5,5z" class="c16"/>
<path d="M 1415, 8800c 9,-18 36,-36 -5,5z" class="c2"/>
<path d="M 1445, 8770c -2,2 -3,3 -5,5z" class="c4"/>
<path d="M 1455, 8760c -2,2 -3,3 -5,5z" class="c13"/>
<path d="M 1475, 8750c 9,-18 36,-36 -5,5z" class="c2"/>
<path d="M 1505, 8720c -2,2 -3,3 -5,5z" class="c10"/>
<path d="M 1525, 8710c 6,-13 13,-13 -5,5z" class="c2"/>
<path d="M 1545, 8690c -2,2 -3,3 -5,5z" class="c7"/>
<path d="M 1555, 8680c -2,2 -3,3 -5,5z" class="c16"/>
<path d="M 1565, 8680c 6,-13 13,-13 -5,5z" class="c2"/>
<path d="M 1585, 8660c -2,2 -3,3 -5,5z" class="c3"/>
<path d="M 1595, 8650c -2,2 -3,3 -5,5z" class="c15"/>
<path d="M 1605, 8650c 9,-18 36,-36 -5,5z" class="c2"/>
<path d="M 1635, 8620c -2,2 -3,3 -5,5z" class="c13"/>
<path d="M 1655, 8610c 6,-13 13,-13 -5,5z" class="c2"/>
<path d="M 1675, 8590c -2,2 -3,3 -5,5z" class="c12"/>
<path d="M 1685, 8590c 6,-13 13,-13 -5,5z" class="c2"/>
<path d="M 1705, 8570c -2,2 -3,3 -5,5z" class="c11"/>
<path d="M 1725, 8560c -2,2 -3,3 -5,5z" class="c2"/>
<path d="M 1735, 8550c -2,2 -3,3 -5,5z" class="c8"/>
<path d="M 1755, 8540c -2,2 -3,3 -5,5z" class="c2"/>
<path d="M 1765, 8530c -2,2 -3,3 -5,5z" class="c6"/>
<path d="M 1785, 8520c -2,2 -3,3 -5,5z" class="c2"/>
<path d="M 1795, 8510c -2,2 -3,3 -5,5z" class="c4"/>
<path d="M 1815, 8500c -2,2 -3,3 -5,5z" class="c2"/>
<path d="M 1825, 8490c -2,2 -3,3 -5,5z" class="c4"/>
<path d="M 1835, 8480c -2,2 -3,3 -5,5z" class="c16"/>
<path d="M 1845, 8480c 6,-13 13,-13 -5,5z" class="c2"/>
<path d="M 1855, 3690c -2,2 -3,3 -5,5z" class="c15"/>
<path d="M 1855, 3700c -2,2 -3,3 -5,5z" class="c13"/>
<path d="M 1855, 3710c -2,2 -3,3 -5,5z" class="c11"/>
<path d="M 1855, 3720c 0,6 -5,28 -5,5z" class="c9"/>
<path d="M 1855, 3740c -2,2 -3,3 -5,5z" class="c8"/>
<path d="M 1855, 3750c -2,2 -3,3 -5,5z" class="c6"/>
<path d="M 1855, 3760c -2,2 -3,3 -5,5z" class="c3"/>
<path d="M 1855, 3770c -2,2 -3,3 -5,5z" class="c4"/>
<path d="M 1855, 3780c 0,34 11,88 0,120c -12,36 -5,-77 -5,-115z" class="c2"/>
<path d="M 1855, 3910c -2,2 -3,3 -5,5z" class="c4"/>
<path d="M 1855, 3920c -2,2 -3,3 -5,5z" class="c3"/>
<path d="M 1855, 3930c 0,6 -5,28 -5,5z" class="c6"/>
<path d="M 1855, 3950c -2,2 -3,3 -5,5z" class="c8"/>
<path d="M 1855, 3960c -2,2 -3,3 -5,5z" class="c9"/>
<path d="M 1855, 3970c -2,2 -3,3 -5,5z" class="c11"/>
<path d="M 1855, 3980c 0,6 -5,28 -5,5z" class="c13"/>
<path d="M 1855, 4000c -2,2 -3,3 -5,5z" class="c15"/>
<path d="M 1865, 3540c -2,2 -3,3 -5,5z" class="c13"/>
<path d="M 1865, 3550c -2,2 -3,3 -5,5z" class="c3"/>
<path d="M 1865, 3560c 0,45 -5,90 -5,5z" class="c2"/>
<path d="M 1865, 3620c 14,-28 -7,-101 5,-120c 2,-3 8,-2 10,-5c 10,-15 -6,-52 0,-70c 15,-46 -8,57 10,-15c 4,-15 -8,-47 0,-60c 2,-3 8,-2 10,-5c 7,-11 -4,-37 0,-50c 15,-46 -8,57 10,-15c 3,-12 -7,-40 0,-50c 2,-3 8,-2 10,-5c 6,-9 -3,-30 0,-40c 15,-46 -8,57 10,-15c 2,-7 -4,-24 0,-30c 2,-3 8,-2 10,-5c 6,-9 -3,-30 0,-40c 15,-46 -8,57 10,-15c 2,-7 -4,-24 0,-30c 2,-3 8,-2 10,-5c 9,-14 0,-50 10,-65c 2,-3 8,-2 10,-5c 11,-16 -1,-58 10,-75c 2,-3 8,-2 10,-5c 1,-2 29,-114 30,-115c 2,-3 8,-2 10,-5c 4,-6 -2,-14 0,-20c 4,-12 14,-22 20,-30c 8,-12 2,-43 10,-55c 2,-3 8,-2 10,-5c 7,-11 4,-36 10,-45c 2,-3 8,-2 10,-5c 7,-11 4,-36 10,-45c 2,-3 8,-2 10,-5c 5,-7 5,-28 10,-35c 2,-3 8,-2 10,-5c 7,-11 4,-36 10,-45c 2,-3 8,-2 10,-5c 15,-22 15,-53 30,-75c 2,-3 8,-2 10,-5c 5,-7 5,-28 10,-35c 2,-3 8,-2 10,-5c 5,-7 5,-28 10,-35c 2,-3 8,-2 10,-5c 5,-7 5,-28 10,-35c 8,-12 23,-24 30,-35c 5,-7 5,-28 10,-35c 2,-3 13,-7 15,-10c 12,-19 13,-41 25,-60c 2,-3 13,-7 15,-10c 4,-6 1,-14 5,-20c 3,-5 12,-5 15,-10c 4,-6 1,-14 5,-20c 12,-17 21,-18 30,-45c 4,-13 37,-43 45,-55c 4,-6 1,-14 5,-20c 6,-9 24,-16 30,-25c 11,-16 15,-40 30,-55c 12,-12 7,1 15,-10c 4,-6 1,-14 5,-20c 7,-11 27,-18 35,-30c 4,-6 1,-14 5,-20c 7,-11 27,-18 35,-30c 4,-6 1,-14 5,-20c 13,-19 42,-30 55,-50c 4,-6 1,-14 5,-20c 22,-33 112,-95 135,-130c 4,-6 0,-15 5,-20c 5,-5 14,-1 20,-5c 27,-18 84,-89 110,-115c 8,-8 18,-5 25,-10c 17,-11 30,-35 45,-50c 8,-8 18,-5 25,-10c 9,-6 17,-22 25,-30c 8,-8 18,-5 25,-10c 9,-6 17,-22 25,-30c 8,-8 18,-5 25,-10c 9,-6 16,-24 25,-30c 6,-4 14,-1 20,-5c 11,-8 -2,-3 10,-15c 10,-10 72,-42 85,-50c 9,-6 16,-24 25,-30c 10,-7 57,-25 65,-30c 23,-15 44,-36 65,-50c 6,-4 14,-1 20,-5c 5,-3 5,-12 10,-15c 19,-12 41,-13 60,-25c 3,-2 7,-13 10,-15c 22,-15 53,-15 75,-30c 3,-2 2,-8 5,-10c 7,-5 28,-5 35,-10c 3,-2 2,-8 5,-10c 7,-5 28,-5 35,-10c 3,-2 2,-8 5,-10c 22,-15 53,-15 75,-30c 3,-2 2,-8 5,-10c 11,-7 36,-4 45,-10c 3,-2 2,-8 5,-10c 7,-5 28,-5 35,-10c 3,-2 2,-8 5,-10c 6,-4 14,2 20,0c 14,-3 21,-14 30,-20c 9,-6 34,-3 45,-10c 3,-2 2,-8 5,-10c 12,-8 43,-2 55,-10c 3,-2 2,-8 5,-10c 1,-1 113,-29 115,-30c 8,-6 18,-16 30,-20c 7,-2 24,4 30,0c 3,-2 2,-8 5,-10c 14,-9 50,0 65,-10c 3,-2 2,-8 5,-10c 17,-11 59,1 75,-10c 3,-2 2,-8 5,-10c 8,-6 30,2 40,0c 72,-18 -31,5 15,-10c 7,-2 24,4 30,0c 3,-2 2,-8 5,-10c 8,-6 30,2 40,0c 72,-18 -31,5 15,-10c 10,-3 31,6 40,0c 3,-2 2,-8 5,-10c 6,-4 121,-7 125,-10c 3,-2 2,-8 5,-10c 13,-8 45,4 60,0c 14,-3 10,-10 25,-10c 19,0 75,10 90,0c 3,-2 2,-8 5,-10c 14,-9 199,0 230,0c 17,0 21,-5 35,-10c 17,-6 5,3 15,10c 9,6 130,0 150,0c 28,0 73,-9 100,0c 46,15 -57,-8 15,10c 25,6 79,-14 100,0c 3,2 2,8 5,10c 13,9 45,-5 60,0c 46,15 -57,-8 15,10c 15,4 47,-8 60,0c 3,2 2,8 5,10c 12,8 92,1 105,10c 3,2 2,8 5,10c 9,6 30,-3 40,0c 46,15 -57,-8 15,10c 7,2 24,-4 30,0c 3,2 2,8 5,10c 9,6 30,-3 40,0c 46,15 -57,-8 15,10c 7,2 24,-4 30,0c 3,2 2,8 5,10c 6,4 23,-2 30,0c 46,15 -57,-8 15,10c 6,2 14,-4 20,0c 3,2 2,8 5,10c 14,9 50,0 65,10c 3,2 2,8 5,10c 12,8 43,2 55,10c 3,2 2,8 5,10c 12,8 43,2 55,10c 3,2 2,8 5,10c 12,8 43,2 55,10c 3,2 2,8 5,10c 6,4 14,-2 20,0c 12,4 22,14 30,20c 6,4 14,-2 20,0c 12,4 22,14 30,20c 9,6 34,3 45,10c 3,2 2,8 5,10c 11,7 36,4 45,10c 3,2 2,8 5,10c 7,5 28,5 35,10c 3,2 2,8 5,10c 22,15 53,15 75,30c 3,2 2,8 5,10c 7,5 28,5 35,10c 3,2 2,8 5,10c 7,5 28,5 35,10c 3,2 2,8 5,10c 7,5 28,5 35,10c 27,18 53,39 85,50c 9,3 14,16 20,20c 7,5 28,5 35,10c 3,2 5,12 10,15c 6,4 14,1 20,5c 3,2 5,12 10,15c 4,3 63,34 65,35c 13,4 15,18 25,25c 16,10 35,15 50,25c 3,2 5,12 10,15c 6,4 14,1 20,5c 9,6 16,24 25,30c 11,8 44,23 55,30c 11,7 18,27 30,35c 6,4 14,1 20,5c 11,7 18,27 30,35c 6,4 14,1 20,5c 19,13 30,42 50,55c 6,4 14,1 20,5c 8,5 275,272 280,280c 4,6 1,14 5,20c 13,20 42,31 55,50c 4,6 1,14 5,20c 8,12 28,19 35,30c 4,6 1,14 5,20c 8,12 28,19 35,30c 4,6 1,14 5,20c 8,11 3,-2 15,10c 15,15 19,39 30,55c 6,9 24,16 30,25c 4,6 1,14 5,20c 8,12 41,42 45,55c 9,27 18,28 30,45c 4,6 1,14 5,20c 3,5 12,5 15,10c 5,7 5,28 10,35c 8,12 23,24 30,35c 4,6 1,14 5,20c 3,5 12,5 15,10c 12,19 13,41 25,60c 3,5 12,5 15,10c 5,7 5,28 10,35c 2,3 8,2 10,5c 5,7 5,28 10,35c 2,3 8,2 10,5c 5,7 5,28 10,35c 2,3 8,2 10,5c 15,22 15,53 30,75c 2,3 8,2 10,5c 4,6 -2,14 0,20c 3,14 14,21 20,30c 5,7 5,28 10,35c 2,3 8,2 10,5c 4,6 -2,14 0,20c 3,14 14,21 20,30c 6,9 3,34 10,45c 2,3 8,2 10,5c 8,12 2,43 10,55c 6,8 16,18 20,30c 2,6 -4,14 0,20c 2,3 8,2 10,5c 8,12 2,43 10,55c 2,3 8,2 10,5c 8,12 2,43 10,55c 2,3 8,2 10,5c 11,17 -1,59 10,75c 2,3 8,2 10,5c 10,15 1,51 10,65c 2,3 8,2 10,5c 4,6 -2,23 0,30c 18,72 -5,-31 10,15c 3,10 -6,31 0,40c 2,3 8,2 10,5c 4,6 -2,23 0,30c 18,72 -5,-31 10,15c 3,10 -6,31 0,40c 2,3 8,2 10,5c 7,10 -3,38 0,50c 18,72 -5,-31 10,15c 4,13 -7,39 0,50c 2,3 8,2 10,5c 8,13 -4,45 0,60c 18,72 -5,-31 10,15c 6,18 -10,55 0,70c 2,3 8,2 10,5c 3,4 10,265 10,295c 0,37 11,253 0,270c -2,3 -8,2 -10,5c -16,24 9,82 0,110c -6,17 -10,25 -10,45c 0,8 4,34 0,40c -2,3 -8,2 -10,5c -9,13 5,45 0,60c -15,46 8,-57 -10,15c -3,12 7,40 0,50c -2,3 -8,2 -10,5c -7,11 4,37 0,50c -15,46 8,-57 -10,15c -2,10 6,32 0,40c -2,3 -8,2 -10,5c -4,6 2,23 0,30c -15,46 8,-57 -10,15c -2,10 6,32 0,40c -2,3 -8,2 -10,5c -11,16 1,58 -10,75c -2,3 -8,2 -10,5c -10,15 -1,51 -10,65c -2,3 -8,2 -10,5c -4,6 2,23 0,30c -15,46 8,-57 -10,15c -2,6 4,14 0,20c -2,3 -8,2 -10,5c -8,12 -2,43 -10,55c -2,3 -8,2 -10,5c -8,12 -2,43 -10,55c -2,3 -8,2 -10,5c -4,6 2,14 0,20c -4,12 -14,22 -20,30c -6,9 -3,34 -10,45c -2,3 -8,2 -10,5c -8,12 -2,43 -10,55c -2,3 -8,2 -10,5c -14,21 -40,109 -50,125c -2,3 -8,2 -10,5c -15,22 -15,53 -30,75c -2,3 -8,2 -10,5c -5,7 -5,28 -10,35c -2,3 -8,2 -10,5c -5,7 -5,28 -10,35c -2,3 -8,2 -10,5c -5,7 -5,28 -10,35c -3,5 -12,5 -15,10c -12,19 -13,41 -25,60c -3,5 -12,5 -15,10c -4,6 -1,14 -5,20c -14,21 -35,42 -50,65c -5,7 -5,28 -10,35c -10,15 -25,26 -35,40c -4,6 -1,14 -5,20c -6,9 -24,16 -30,25c -8,13 -40,75 -50,85c -12,12 -47,47 -55,60c -4,6 -1,14 -5,20c -7,11 -27,18 -35,30c -4,6 -1,14 -5,20c -13,19 -42,30 -55,50c -4,6 -1,14 -5,20c -18,27 -57,43 -75,70c -9,13 -26,22 -35,35c -5,7 -2,17 -10,25c -18,18 -62,68 -80,80c -6,4 -14,1 -20,5c -33,22 -58,74 -90,95c -6,4 -14,1 -20,5c -20,13 -31,42 -50,55c -6,4 -14,1 -20,5c -12,8 -19,28 -30,35c -11,7 -44,22 -55,30c -9,6 -16,24 -25,30c -6,4 -14,1 -20,5c -11,8 2,3 -10,15c -10,10 -72,42 -85,50c -14,9 -34,35 -50,40c -26,9 -52,35 -75,50c -6,4 -14,1 -20,5c -5,3 -5,12 -10,15c -7,5 -28,5 -35,10c -6,4 -11,17 -20,20c -32,11 -58,32 -85,50c -7,5 -28,5 -35,10c -3,2 -2,8 -5,10c -7,5 -28,5 -35,10c -3,2 -2,8 -5,10c -22,15 -53,15 -75,30c -3,2 -2,8 -5,10c -11,7 -36,4 -45,10c -3,2 -2,8 -5,10c -7,5 -28,5 -35,10c -3,2 -2,8 -5,10c -11,7 -36,4 -45,10c -3,2 -2,8 -5,10c -11,7 -36,4 -45,10c -3,2 -2,8 -5,10c -9,6 -34,3 -45,10c -3,2 -2,8 -5,10c -6,4 -14,-2 -20,0c -72,18 31,-5 -15,10c -6,2 -14,-4 -20,0c -3,2 -2,8 -5,10c -1,1 -113,29 -115,30c -3,2 -2,8 -5,10c -15,10 -51,1 -65,10c -3,2 -2,8 -5,10c -6,4 -23,-2 -30,0c -72,18 31,-5 -15,10c -6,2 -14,-4 -20,0c -3,2 -2,8 -5,10c -6,4 -23,-2 -30,0c -72,18 31,-5 -15,10c -10,3 -31,-6 -40,0c -3,2 -2,8 -5,10c -6,4 -23,-2 -30,0c -72,18 31,-5 -15,10c -7,2 -24,-4 -30,0c -3,2 -2,8 -5,10c -10,7 -38,-3 -50,0c -72,18 31,-5 -15,10c -13,4 -39,-7 -50,0c -3,2 -2,8 -5,10c -10,7 -38,-3 -50,0c -72,18 31,-5 -15,10c -18,6 -55,-10 -70,0c -3,2 -2,8 -5,10c -4,3 -157,10 -175,10c -10,0 -42,-5 -50,0c -3,2 -2,8 -5,10c -8,5 -112,0 -130,0c -38,0 -150,10 -180,0c -46,-15 57,8 -15,-10c -28,-7 -122,12 -140,0c -3,-2 -2,-8 -5,-10c -15,-10 -52,6 -70,0c -46,-15 57,8 -15,-10c -18,-4 -55,10 -70,0c -3,-2 -2,-8 -5,-10c -11,-7 -37,4 -50,0c -46,-15 57,8 -15,-10c -12,-3 -40,7 -50,0c -3,-2 -2,-8 -5,-10c -11,-7 -37,4 -50,0c -46,-15 57,8 -15,-10c -7,-2 -24,4 -30,0c -3,-2 -2,-8 -5,-10c -6,-4 -23,2 -30,0c -46,-15 57,8 -15,-10c -10,-2 -32,6 -40,0c -3,-2 -2,-8 -5,-10c -14,-9 -50,0 -65,-10c -3,-2 -2,-8 -5,-10c -16,-11 -58,1 -75,-10c -3,-2 -2,-8 -5,-10c -12,-8 -43,-2 -55,-10c -3,-2 -2,-8 -5,-10c -12,-8 -43,-2 -55,-10c -3,-2 -2,-8 -5,-10c -12,-8 -43,-2 -55,-10c -3,-2 -2,-8 -5,-10c -6,-4 -14,2 -20,0c -12,-4 -22,-14 -30,-20c -12,-8 -43,-2 -55,-10c -3,-2 -2,-8 -5,-10c -7,-5 -28,-5 -35,-10c -3,-2 -2,-8 -5,-10c -9,-6 -34,-3 -45,-10c -3,-2 -2,-8 -5,-10c -7,-5 -28,-5 -35,-10c -3,-2 -2,-8 -5,-10c -9,-6 -34,-3 -45,-10c -3,-2 -2,-8 -5,-10c -22,-15 -53,-15 -75,-30c -3,-2 -2,-8 -5,-10c -7,-5 -28,-5 -35,-10c -3,-2 -2,-8 -5,-10c -7,-5 -28,-5 -35,-10c -5,-3 -5,-12 -10,-15c -19,-12 -41,-13 -60,-25c -5,-3 -5,-12 -10,-15c -6,-4 -14,-1 -20,-5c -11,-7 -23,-22 -35,-30c -7,-5 -28,-5 -35,-10c -15,-10 -26,-25 -40,-35c -6,-4 -14,-1 -20,-5c -5,-3 -5,-12 -10,-15c -6,-4 -14,-1 -20,-5c -5,-3 -5,-12 -10,-15c -6,-4 -14,-1 -20,-5c -5,-3 -5,-12 -10,-15c -16,-10 -35,-15 -50,-25c -20,-13 -39,-41 -60,-55c -6,-4 -14,-1 -20,-5c -9,-6 -16,-24 -25,-30c -7,-5 -17,-2 -25,-10c -8,-8 -16,-24 -25,-30c -7,-5 -17,-2 -25,-10c -15,-15 -28,-39 -45,-50c -7,-5 -17,-2 -25,-10c -24,-24 -58,-72 -85,-90c -7,-5 -17,-2 -25,-10c -27,-27 -53,-53 -80,-80c -8,-8 -5,-18 -10,-25c -18,-27 -66,-61 -90,-85c -8,-8 -5,-18 -10,-25c -11,-17 -35,-30 -50,-45c -8,-8 -5,-18 -10,-25c -6,-9 -22,-17 -30,-25c -8,-8 -5,-18 -10,-25c -6,-9 -24,-16 -30,-25c -4,-6 -1,-14 -5,-20c -8,-12 -28,-19 -35,-30c -4,-6 -1,-14 -5,-20c -3,-5 -12,-5 -15,-10c -4,-6 -1,-14 -5,-20c -2,-3 -13,-7 -15,-10c -7,-11 -22,-44 -30,-55c -9,-14 -35,-34 -40,-50c -9,-27 -18,-28 -30,-45c -4,-6 -1,-14 -5,-20c -2,-3 -13,-7 -15,-10c -5,-7 -5,-28 -10,-35c -4,-6 -17,-11 -20,-20c -11,-32 -32,-58 -50,-85c -5,-7 -5,-28 -10,-35c -2,-3 -8,-2 -10,-5c -5,-7 -5,-28 -10,-35c -2,-3 -8,-2 -10,-5c -5,-7 -5,-28 -10,-35c -2,-3 -8,-2 -10,-5c -15,-22 -15,-53 -30,-75c -2,-3 -8,-2 -10,-5c -7,-11 -4,-36 -10,-45c -2,-3 -8,-2 -10,-5c -5,-7 -5,-28 -10,-35c -2,-3 -8,-2 -10,-5c -19,-28 -11,-67 -30,-95c -2,-3 -8,-2 -10,-5c -6,-9 -3,-34 -10,-45c -2,-3 -8,-2 -10,-5c -8,-12 -2,-43 -10,-55c -2,-3 -8,-2 -10,-5c -1,-1 -29,-113 -30,-115c -2,-3 -8,-2 -10,-5c -11,-17 1,-59 -10,-75c -2,-3 -8,-2 -10,-5c -10,-15 -1,-51 -10,-65c -2,-3 -8,-2 -10,-5c -4,-6 2,-23 0,-30c -18,-72 5,31 -10,-15c -3,-10 6,-31 0,-40c -2,-3 -8,-2 -10,-5c -4,-6 2,-23 0,-30c -18,-72 5,31 -10,-15c -3,-10 6,-31 0,-40c -2,-3 -8,-2 -10,-5c -7,-10 3,-38 0,-50c -18,-72 5,31 -10,-15c -4,-13 7,-39 0,-50c -2,-3 -8,-2 -10,-5c -8,-13 4,-45 0,-60c -18,-72 5,31 -10,-15c -6,-18 10,-55 0,-70c -2,-3 -8,-2 -10,-5c -9,-14 5,-88 0,-110c -18,-72 5,31 -10,-15c -11,-34 0,-366 0,-430z" class="c1"/>
<path d="M 1865, 4070c 0,45 -5,90 -5,5z" class="c2"/>
<path d="M 1865, 4130c -2,2 -3,3 -5,5z" class="c3"/>
<path d="M 1865, 4140c -2,2 -3,3 -5,5z" class="c12"/>
<path d="M 1865, 8460c -2,2 -3,3 -5,5z" class="c14"/>
<path d="M 1875, 3450c -2,2 -3,3 -5,5z" class="c14"/>
<path d="M 1875, 3460c 0,2 -1,39 -5,35c -3,-3 0,-26 0,-30z" class="c2"/>
<path d="M 1875, 4190c 0,2 -1,39 -5,35c -3,-3 0,-26 0,-30z" class="c2"/>
<path d="M 1875, 4230c -2,2 -3,3 -5,5z" class="c14"/>
<path d="M 1875, 8460c -2,2 -3,3 -5,5z" class="c2"/>
<path d="M 1885, 3370c -2,2 -3,3 -5,5z" class="c14"/>
<path d="M 1885, 3380c 0,2 -1,39 -5,35c -3,-3 0,-26 0,-30z" class="c2"/>
<path d="M 1885, 4270c 0,2 -1,39 -5,35c -3,-3 0,-26 0,-30z" class="c2"/>
<path d="M 1885, 4310c -2,2 -3,3 -5,5z" class="c14"/>
<path d="M 1885, 8450c -2,2 -3,3 -5,5z" class="c3"/>
<path d="M 1895, 3310c -2,2 -3,3 -5,5z" class="c15"/>
<path d="M 1895, 3320c 0,21 -5,34 -5,5z" class="c2"/>
<path d="M 1895, 4340c 0,21 -5,34 -5,5z" class="c2"/>
<path d="M 1895, 4370c -2,2 -3,3 -5,5z" class="c15"/>
<path d="M 1905, 3260c -2,2 -3,3 -5,5z" class="c3"/>
<path d="M 1905, 3270c 0,6 -5,28 -5,5z" class="c2"/>
<path d="M 1905, 4400c 0,21 -5,34 -5,5z" class="c2"/>
<path d="M 1905, 4430c -2,2 -3,3 -5,5z" class="c15"/>
<path d="M 1905, 8440c -2,2 -3,3 -5,5z" class="c2"/>
<path d="M 1915, 3200c -2,2 -3,3 -5,5z" class="c7"/>
<path d="M 1915, 3210c 0,6 -5,28 -5,5z" class="c2"/>
<path d="M 1915, 4460c 0,6 -5,28 -5,5z" class="c2"/>
<path d="M 1915, 4480c -2,2 -3,3 -5,5z" class="c3"/>
<path d="M 1915, 8430c -2,2 -3,3 -5,5z" class="c13"/>
<path d="M 1925, 3150c -2,2 -3,3 -5,5z" class="c15"/>
<path d="M 1925, 3160c 0,6 -5,28 -5,5z" class="c2"/>
<path d="M 1925, 4510c 0,6 -5,28 -5,5z" class="c2"/>
<path d="M 1925, 4530c -2,2 -3,3 -5,5z" class="c15"/>
<path d="M 1925, 8430c 6,-13 13,-13 -5,5z" class="c2"/>
<path d="M 1935, 3110c -2,2 -3,3 -5,5z" class="c12"/>
<path d="M 1935, 3120c 0,6 -5,28 -5,5z" class="c2"/>
<path d="M 1935, 4550c 0,6 -5,28 -5,5z" class="c2"/>
<path d="M 1935, 4570c -2,2 -3,3 -5,5z" class="c6"/>
<path d="M 1945, 3060c -2,2 -3,3 -5,5z" class="c15"/>
<path d="M 1945, 3070c 0,6 -5,28 -5,5z" class="c2"/>
<path d="M 1945, 4600c 0,6 -5,28 -5,5z" class="c2"/>
<path d="M 1945, 4620c -2,2 -3,3 -5,5z" class="c15"/>
<path d="M 1955, 3020c -2,2 -3,3 -5,5z" class="c16"/>
<path d="M 1955, 3030c 0,6 -5,28 -5,5z" class="c2"/>
<path d="M 1955, 4640c 0,6 -5,28 -5,5z" class="c2"/>
<path d="M 1955, 4660c -2,2 -3,3 -5,5z" class="c16"/>
<path d="M 1955, 8410c -2,2 -3,3 -5,5z" class="c2"/>
<path d="M 1965, 2990c -2,2 -3,3 -5,5z" class="c9"/>
<path d="M 1965, 3000c -2,2 -3,3 -5,5z" class="c2"/>
<path d="M 1965, 4680c 0,6 -5,28 -5,5z" class="c2"/>
<path d="M 1965, 8400c -2,2 -3,3 -5,5z" class="c9"/>
<path d="M 1975, 2950c -2,2 -3,3 -5,5z" class="c13"/>
<path d="M 1975, 2960c 0,6 -5,28 -5,5z" class="c2"/>
<path d="M 1975, 4710c 0,6 -5,28 -5,5z" class="c2"/>
<path d="M 1975, 4730c -2,2 -3,3 -5,5z" class="c13"/>
<path d="M 1985, 2920c 0,6 -5,28 -5,5z" class="c2"/>
<path d="M 1985, 4750c 0,6 -5,28 -5,5z" class="c2"/>
<path d="M 1985, 8390c -2,2 -3,3 -5,5z" class="c2"/>
<path d="M 1995, 2880c -2,2 -3,3 -5,5z" class="c14"/>
<path d="M 1995, 2890c -2,2 -3,3 -5,5z" class="c2"/>
<path d="M 1995, 4790c -2,2 -3,3 -5,5z" class="c2"/>
<path d="M 1995, 4800c -2,2 -3,3 -5,5z" class="c13"/>
<path d="M 1995, 8380c -2,2 -3,3 -5,5z" class="c16"/>
<path d="M 2005, 2850c -2,2 -3,3 -5,5z" class="c14"/>
<path d="M 2005, 2860c -2,2 -3,3 -5,5z" class="c2"/>
<path d="M 2005, 4820c -2,2 -3,3 -5,5z" class="c2"/>
<path d="M 2005, 4830c -2,2 -3,3 -5,5z" class="c13"/>
<path d="M 2005, 8380c -2,2 -3,3 -5,5z" class="c2"/>
<path d="M 2015, 2820c -2,2 -3,3 -5,5z" class="c14"/>
<path d="M 2015, 2830c -2,2 -3,3 -5,5z" class="c2"/>
<path d="M 2015, 4850c -2,2 -3,3 -5,5z" class="c2"/>
<path d="M 2015, 4860c -2,2 -3,3 -5,5z" class="c13"/>
<path d="M 2015, 8370c -2,2 -3,3 -5,5z" class="c7"/>
<path d="M 2025, 2790c -2,2 -3,3 -5,5z" class="c14"/>
<path d="M 2025, 2800c -2,2 -3,3 -5,5z" class="c2"/>
<path d="M 2025, 4880c -2,2 -3,3 -5,5z" class="c2"/>
<path d="M 2025, 4890c -2,2 -3,3 -5,5z" class="c13"/>
<path d="M 2035, 2760c -2,2 -3,3 -5,5z" class="c14"/>
<path d="M 2035, 2770c -2,2 -3,3 -5,5z" class="c2"/>
<path d="M 2035, 4910c -2,2 -3,3 -5,5z" class="c2"/>
<path d="M 2035, 4920c -2,2 -3,3 -5,5z" class="c10"/>
<path d="M 2035, 8360c -2,2 -3,3 -5,5z" class="c2"/>
<path d="M 2045, 2730c -2,2 -3,3 -5,5z" class="c16"/>
<path d="M 2045, 2740c -2,2 -3,3 -5,5z" class="c2"/>
<path d="M 2045, 4940c -2,2 -3,3 -5,5z" class="c2"/>
<path d="M 2045, 4950c -2,2 -3,3 -5,5z" class="c14"/>
<path d="M 2045, 8350c -2,2 -3,3 -5,5z" class="c14"/>
<path d="M 2055, 2710c 0,6 -5,28 -5,5z" class="c2"/>
<path d="M 2055, 4970c -2,2 -3,3 -5,5z" class="c2"/>
<path d="M 2055, 8350c -2,2 -3,3 -5,5z" class="c2"/>
<path d="M 2065, 2680c -2,2 -3,3 -5,5z" class="c14"/>
<path d="M 2065, 2690c -2,2 -3,3 -5,5z" class="c2"/>
<path d="M 2065, 4990c -2,2 -3,3 -5,5z" class="c2"/>
<path d="M 2065, 5000c -2,2 -3,3 -5,5z" class="c11"/>
<path d="M 2065, 8340c -2,2 -3,3 -5,5z" class="c4"/>
<path d="M 2075, 2660c -2,2 -3,3 -5,5z" class="c2"/>
<path d="M 2075, 5020c -2,2 -3,3 -5,5z" class="c2"/>
<path d="M 2075, 5030c -2,2 -3,3 -5,5z" class="c16"/>
<path d="M 2085, 2630c -2,2 -3,3 -5,5z" class="c6"/>
<path d="M 2085, 2640c -2,2 -3,3 -5,5z" class="c2"/>
<path d="M 2085, 5040c 0,6 -5,28 -5,5z" class="c2"/>
<path d="M 2085, 8330c -2,2 -3,3 -5,5z" class="c2"/>
<path d="M 2095, 2600c -2,2 -3,3 -5,5z" class="c16"/>
<path d="M 2095, 2610c -2,2 -3,3 -5,5z" class="c2"/>
<path d="M 2095, 5070c -2,2 -3,3 -5,5z" class="c2"/>
<path d="M 2095, 5080c -2,2 -3,3 -5,5z" class="c11"/>
<path d="M 2105, 2580c -2,2 -3,3 -5,5z" class="c8"/>
<path d="M 2105, 2590c -2,2 -3,3 -5,5z" class="c2"/>
<path d="M 2105, 5100c -2,2 -3,3 -5,5z" class="c2"/>
<path d="M 2105, 8320c -2,2 -3,3 -5,5z" class="c2"/>
<path d="M 2115, 2560c -2,2 -3,3 -5,5z" class="c2"/>
<path d="M 2115, 5120c -2,2 -3,3 -5,5z" class="c2"/>
<path d="M 2115, 8310c -2,2 -3,3 -5,5z" class="c15"/>
<path d="M 2125, 2530c -2,2 -3,3 -5,5z" class="c16"/>
<path d="M 2125, 2540c -2,2 -3,3 -5,5z" class="c2"/>
<path d="M 2125, 5140c -2,2 -3,3 -5,5z" class="c2"/>
<path d="M 2125, 5150c -2,2 -3,3 -5,5z" class="c14"/>
<path d="M 2125, 8310c -2,2 -3,3 -5,5z" class="c2"/>
<path d="M 2135, 2510c -2,2 -3,3 -5,5z" class="c14"/>
<path d="M 2135, 2520c -2,2 -3,3 -5,5z" class="c2"/>
<path d="M 2135, 5160c -2,2 -3,3 -5,5z" class="c2"/>
<path d="M 2135, 5170c -2,2 -3,3 -5,5z" class="c7"/>
<path d="M 2135, 8300c -2,2 -3,3 -5,5z" class="c10"/>
<path d="M 2145, 2490c -2,2 -3,3 -5,5z" class="c8"/>
<path d="M 2145, 2500c -2,2 -3,3 -5,5z" class="c2"/>
<path d="M 2145, 5190c -2,2 -3,3 -5,5z" class="c2"/>
<path d="M 2145, 8300c -2,2 -3,3 -5,5z" class="c2"/>
<path d="M 2155, 2470c -2,2 -3,3 -5,5z" class="c2"/>
<path d="M 2155, 5210c -2,2 -3,3 -5,5z" class="c2"/>
<path d="M 2155, 5220c -2,2 -3,3 -5,5z" class="c16"/>
<path d="M 2155, 8290c -2,2 -3,3 -5,5z" class="c4"/>
<path d="M 2165, 2450c -2,2 -3,3 -5,5z" class="c2"/>
<path d="M 2165, 5230c -2,2 -3,3 -5,5z" class="c2"/>
<path d="M 2165, 5240c -2,2 -3,3 -5,5z" class="c14"/>
<path d="M 2175, 2430c -2,2 -3,3 -5,5z" class="c2"/>
<path d="M 2175, 5250c -2,2 -3,3 -5,5z" class="c2"/>
<path d="M 2175, 5260c -2,2 -3,3 -5,5z" class="c14"/>
<path d="M 2175, 8280c -2,2 -3,3 -5,5z" class="c2"/>
<path d="M 2185, 2410c -2,2 -3,3 -5,5z" class="c2"/>
<path d="M 2185, 5270c -2,2 -3,3 -5,5z" class="c2"/>
<path d="M 2185, 5280c -2,2 -3,3 -5,5z" class="c14"/>
<path d="M 2195, 2390c -2,2 -3,3 -5,5z" class="c2"/>
<path d="M 2195, 5290c -2,2 -3,3 -5,5z" class="c2"/>
<path d="M 2195, 5300c -2,2 -3,3 -5,5z" class="c14"/>
<path d="M 2195, 8270c -2,2 -3,3 -5,5z" class="c2"/>
<path d="M 2205, 2370c -2,2 -3,3 -5,5z" class="c2"/>
<path d="M 2205, 5310c -2,2 -3,3 -5,5z" class="c2"/>
<path d="M 2205, 5320c -2,2 -3,3 -5,5z" class="c14"/>
<path d="M 2205, 8260c -2,2 -3,3 -5,5z" class="c15"/>
<path d="M 2215, 2350c -2,2 -3,3 -5,5z" class="c2"/>
<path d="M 2215, 5330c -2,2 -3,3 -5,5z" class="c2"/>
<path d="M 2215, 5340c -2,2 -3,3 -5,5z" class="c14"/>
<path d="M 2215, 8260c -2,2 -3,3 -5,5z" class="c2"/>
<path d="M 2225, 2330c -2,2 -3,3 -5,5z" class="c2"/>
<path d="M 2225, 5350c -2,2 -3,3 -5,5z" class="c2"/>
<path d="M 2225, 5360c -2,2 -3,3 -5,5z" class="c14"/>
<path d="M 2225, 8250c -2,2 -3,3 -5,5z" class="c10"/>
<path d="M 2235, 2310c -2,2 -3,3 -5,5z" class="c2"/>
<path d="M 2235, 5370c -2,2 -3,3 -5,5z" class="c2"/>
<path d="M 2235, 5380c -2,2 -3,3 -5,5z" class="c14"/>
<path d="M 2235, 8250c -2,2 -3,3 -5,5z" class="c2"/>
<path d="M 2245, 2290c -2,2 -3,3 -5,5z" class="c2"/>
<path d="M 2245, 5390c -2,2 -3,3 -5,5z" class="c2"/>
<path d="M 2245, 8240c -2,2 -3,3 -5,5z" class="c4"/>
<path d="M 2255, 2270c -2,2 -3,3 -5,5z" class="c6"/>
<path d="M 2255, 5410c -2,2 -3,3 -5,5z" class="c2"/>
<path d="M 2265, 2250c -2,2 -3,3 -5,5z" class="c13"/>
<path d="M 2265, 2260c -2,2 -3,3 -5,5z" class="c2"/>
<path d="M 2265, 5430c -2,2 -3,3 -5,5z" class="c6"/>
<path d="M 2265, 8230c -2,2 -3,3 -5,5z" class="c2"/>
<path d="M 2275, 2240c -2,2 -3,3 -5,5z" class="c2"/>
<path d="M 2275, 5440c -2,2 -3,3 -5,5z" class="c2"/>
<path d="M 2275, 5450c -2,2 -3,3 -5,5z" class="c13"/>
<path d="M 2285, 2220c -2,2 -3,3 -5,5z" class="c2"/>
<path d="M 2285, 5460c -2,2 -3,3 -5,5z" class="c2"/>
<path d="M 2285, 8220c -2,2 -3,3 -5,5z" class="c2"/>
<path d="M 2295, 2200c 6,-13 13,-13 -5,5z" class="c2"/>
<path d="M 2295, 5480c -2,2 -3,3 -5,5z" class="c2"/>
<path d="M 2305, 2180c -2,2 -3,3 -5,5z" class="c10"/>
<path d="M 2305, 5500c 9,18 13,14 -5,5z" class="c2"/>
<path d="M 2305, 8210c -2,2 -3,3 -5,5z" class="c2"/>
<path d="M 2315, 2160c -2,2 -3,3 -5,5z" class="c15"/>
<path d="M 2315, 2170c -2,2 -3,3 -5,5z" class="c2"/>
<path d="M 2315, 5520c -2,2 -3,3 -5,5z" class="c10"/>
<path d="M 2325, 2150c -2,2 -3,3 -5,5z" class="c2"/>
<path d="M 2325, 5530c -2,2 -3,3 -5,5z" class="c2"/>
<path d="M 2325, 8200c -2,2 -3,3 -5,5z" class="c2"/>
<path d="M 2335, 2130c -2,2 -3,3 -5,5z" class="c10"/>
<path d="M 2335, 5550c -2,2 -3,3 -5,5z" class="c7"/>
<path d="M 2345, 2120c -2,2 -3,3 -5,5z" class="c2"/>
<path d="M 2345, 5560c -2,2 -3,3 -5,5z" class="c2"/>
<path d="M 2345, 8190c -2,2 -3,3 -5,5z" class="c2"/>
<path d="M 2355, 2100c -2,2 -3,3 -5,5z" class="c7"/>
<path d="M 2355, 5580c 9,18 13,14 -5,5z" class="c2"/>
<path d="M 2365, 2090c -2,2 -3,3 -5,5z" class="c2"/>
<path d="M 2365, 5600c -2,2 -3,3 -5,5z" class="c13"/>
<path d="M 2365, 8180c -2,2 -3,3 -5,5z" class="c2"/>
<path d="M 2375, 2070c 6,-13 13,-13 -5,5z" class="c2"/>
<path d="M 2375, 5610c -2,2 -3,3 -5,5z" class="c2"/>
<path d="M 2385, 2050c -2,2 -3,3 -5,5z" class="c15"/>
<path d="M 2385, 5630c -2,2 -3,3 -5,5z" class="c7"/>
<path d="M 2385, 8170c -2,2 -3,3 -5,5z" class="c2"/>
<path d="M 2395, 2040c -2,2 -3,3 -5,5z" class="c2"/>
<path d="M 2395, 5640c -2,2 -3,3 -5,5z" class="c2"/>
<path d="M 2405, 2020c -2,2 -3,3 -5,5z" class="c11"/>
<path d="M 2405, 5660c 9,18 13,14 -5,5z" class="c2"/>
<path d="M 2405, 8160c -2,2 -3,3 -5,5z" class="c2"/>
<path d="M 2415, 2010c 6,-13 13,-13 -5,5z" class="c2"/>
<path d="M 2425, 1990c -2,2 -3,3 -5,5z" class="c15"/>
<path d="M 2425, 5690c -2,2 -3,3 -5,5z" class="c8"/>
<path d="M 2425, 8150c -2,2 -3,3 -5,5z" class="c2"/>
<path d="M 2435, 1980c 6,-13 13,-13 -5,5z" class="c2"/>
<path d="M 2435, 5700c 9,18 13,14 -5,5z" class="c2"/>
<path d="M 2445, 5720c -2,2 -3,3 -5,5z" class="c13"/>
<path d="M 2445, 8140c -2,2 -3,3 -5,5z" class="c2"/>
<path d="M 2455, 1950c -2,2 -3,3 -5,5z" class="c8"/>
<path d="M 2455, 5730c 9,18 13,14 -5,5z" class="c2"/>
<path d="M 2465, 1940c 6,-13 13,-13 -5,5z" class="c2"/>
<path d="M 2465, 8130c -2,2 -3,3 -5,5z" class="c2"/>
<path d="M 2475, 1920c -2,2 -3,3 -5,5z" class="c13"/>
<path d="M 2475, 5760c -2,2 -3,3 -5,5z" class="c3"/>
<path d="M 2485, 1910c 6,-13 13,-13 -5,5z" class="c2"/>
<path d="M 2485, 5770c -2,2 -3,3 -5,5z" class="c2"/>
<path d="M 2485, 8120c -2,2 -3,3 -5,5z" class="c2"/>
<path d="M 2495, 5790c -2,2 -3,3 -5,5z" class="c11"/>
<path d="M 2505, 1880c -2,2 -3,3 -5,5z" class="c9"/>
<path d="M 2505, 5800c 18,36 31,23 -5,5z" class="c2"/>
<path d="M 2505, 8110c -2,2 -3,3 -5,5z" class="c8"/>
<path d="M 2515, 1870c 6,-13 13,-13 -5,5z" class="c2"/>
<path d="M 2515, 8110c -2,2 -3,3 -5,5z" class="c2"/>
<path d="M 2525, 5830c -2,2 -3,3 -5,5z" class="c15"/>
<path d="M 2525, 8100c -2,2 -3,3 -5,5z" class="c14"/>
<path d="M 2535, 1840c -2,2 -3,3 -5,5z" class="c14"/>
<path d="M 2535, 5840c -2,2 -3,3 -5,5z" class="c5"/>
<path d="M 2535, 8100c -2,2 -3,3 -5,5z" class="c2"/>
<path d="M 2545, 1830c -2,2 -3,3 -5,5z" class="c5"/>
<path d="M 2545, 5850c 9,18 13,14 -5,5z" class="c2"/>
<path d="M 2555, 1820c 6,-13 13,-13 -5,5z" class="c2"/>
<path d="M 2555, 8090c -2,2 -3,3 -5,5z" class="c2"/>
<path d="M 2565, 5880c -2,2 -3,3 -5,5z" class="c11"/>
<path d="M 2575, 1790c -2,2 -3,3 -5,5z" class="c11"/>
<path d="M 2575, 5890c 18,36 31,23 -5,5z" class="c2"/>
<path d="M 2575, 8080c -2,2 -3,3 -5,5z" class="c2"/>
<path d="M 2585, 1780c 9,-18 36,-36 -5,5z" class="c2"/>
<path d="M 2595, 5920c -2,2 -3,3 -5,5z" class="c15"/>
<path d="M 2595, 8070c -2,2 -3,3 -5,5z" class="c8"/>
<path d="M 2605, 5930c -2,2 -3,3 -5,5z" class="c12"/>
<path d="M 2605, 8070c -2,2 -3,3 -5,5z" class="c2"/>
<path d="M 2615, 1740c -2,2 -3,3 -5,5z" class="c14"/>
<path d="M 2615, 5940c -2,2 -3,3 -5,5z" class="c6"/>
<path d="M 2615, 8060c -2,2 -3,3 -5,5z" class="c14"/>
<path d="M 2625, 1730c -2,2 -3,3 -5,5z" class="c9"/>
<path d="M 2625, 5950c 7,15 10,10 20,20c 29,29 -16,-10 -25,-15z" class="c2"/>
<path d="M 2625, 8060c -2,2 -3,3 -5,5z" class="c2"/>
<path d="M 2635, 1720c -2,2 -3,3 -5,5z" class="c4"/>
<path d="M 2645, 1710c 9,-18 36,-36 -5,5z" class="c2"/>
<path d="M 2645, 8050c -2,2 -3,3 -5,5z" class="c2"/>
<path d="M 2665, 6000c -2,2 -3,3 -5,5z" class="c14"/>
<path d="M 2665, 8040c -2,2 -3,3 -5,5z" class="c2"/>
<path d="M 2675, 1670c -2,2 -3,3 -5,5z" class="c15"/>
<path d="M 2675, 6010c -2,2 -3,3 -5,5z" class="c6"/>
<path d="M 2685, 1660c -2,2 -3,3 -5,5z" class="c12"/>
<path d="M 2685, 6020c 4,9 71,74 70,75c -1,1 -66,-66 -75,-70z" class="c2"/>
<path d="M 2685, 8030c -2,2 -3,3 -5,5z" class="c6"/>
<path d="M 2695, 1650c -2,2 -3,3 -5,5z" class="c6"/>
<path d="M 2695, 8030c -2,2 -3,3 -5,5z" class="c2"/>
<path d="M 2705, 1640c 5,-11 100,-100 100,-100c 2,2 -96,96 -105,105z" class="c2"/>
<path d="M 2705, 8020c -2,2 -3,3 -5,5z" class="c13"/>
<path d="M 2715, 8020c -2,2 -3,3 -5,5z" class="c2"/>
<path d="M 2735, 8010c 23,0 1,5 -5,5z" class="c2"/>
<path d="M 2755, 8000c -2,2 -3,3 -5,5z" class="c13"/>
<path d="M 2765, 6110c 9,18 13,14 -5,5z" class="c15"/>
<path d="M 2765, 8000c -2,2 -3,3 -5,5z" class="c2"/>
<path d="M 2785, 6130c -2,2 -3,3 -5,5z" class="c14"/>
<path d="M 2785, 7990c 23,0 1,5 -5,5z" class="c2"/>
<path d="M 2795, 6140c -2,2 -3,3 -5,5z" class="c12"/>
<path d="M 2805, 6150c -2,2 -3,3 -5,5z" class="c10"/>
<path d="M 2805, 7980c -2,2 -3,3 -5,5z" class="c14"/>
<path d="M 2815, 6160c -2,2 -3,3 -5,5z" class="c11"/>
<path d="M 2815, 7980c -2,2 -3,3 -5,5z" class="c2"/>
<path d="M 2825, 1520c 5,-11 100,-100 100,-100c 2,2 -96,96 -105,105z" class="c2"/>
<path d="M 2825, 6170c -2,2 -3,3 -5,5z" class="c13"/>
<path d="M 2835, 6180c -2,2 -3,3 -5,5z" class="c14"/>
<path d="M 2835, 7970c 23,0 1,5 -5,5z" class="c2"/>
<path d="M 2845, 6190c 9,18 13,14 -5,5z" class="c16"/>
<path d="M 2855, 7960c -2,2 -3,3 -5,5z" class="c14"/>
<path d="M 2865, 7960c -2,2 -3,3 -5,5z" class="c2"/>
<path d="M 2875, 6210c 4,9 71,74 70,75c -1,1 -66,-66 -75,-70z" class="c2"/>
<path d="M 2885, 7950c 23,0 1,5 -5,5z" class="c2"/>
<path d="M 2905, 7940c -2,2 -3,3 -5,5z" class="c14"/>
<path d="M 2915, 7940c -2,2 -3,3 -5,5z" class="c2"/>
<path d="M 2935, 1410c -2,2 -3,3 -5,5z" class="c9"/>
<path d="M 2935, 7930c 23,0 1,5 -5,5z" class="c2"/>
<path d="M 2945, 1400c -2,2 -3,3 -5,5z" class="c13"/>
<path d="M 2955, 6290c -2,2 -3,3 -5,5z" class="c6"/>
<path d="M 2965, 1390c 5,-10 64,-64 -5,5z" class="c2"/>
<path d="M 2965, 6300c -2,2 -3,3 -5,5z" class="c13"/>
<path d="M 2965, 7920c 23,0 1,5 -5,5z" class="c2"/>
<path d="M 2985, 6310c 7,15 10,10 20,20c 29,29 -16,-10 -25,-15z" class="c2"/>
<path d="M 2995, 7910c -2,2 -3,3 -5,5z" class="c2"/>
<path d="M 3005, 1350c -2,2 -3,3 -5,5z" class="c6"/>
<path d="M 3015, 1340c -2,2 -3,3 -5,5z" class="c13"/>
<path d="M 3015, 7900c -2,2 -3,3 -5,5z" class="c15"/>
<path d="M 3025, 1330c -2,2 -3,3 -5,5z" class="c16"/>
<path d="M 3025, 6350c -2,2 -3,3 -5,5z" class="c6"/>
<path d="M 3025, 7900c -2,2 -3,3 -5,5z" class="c2"/>
<path d="M 3035, 1330c 9,-18 36,-36 -5,5z" class="c2"/>
<path d="M 3035, 6360c -2,2 -3,3 -5,5z" class="c13"/>
<path d="M 3045, 7890c -2,2 -3,3 -5,5z" class="c12"/>
<path d="M 3055, 6370c 9,18 13,14 -5,5z" class="c2"/>
<path d="M 3055, 7890c -2,2 -3,3 -5,5z" class="c2"/>
<path d="M 3065, 1300c -2,2 -3,3 -5,5z" class="c7"/>
<path d="M 3075, 1290c -2,2 -3,3 -5,5z" class="c15"/>
<path d="M 3075, 6390c -2,2 -3,3 -5,5z" class="c3"/>
<path d="M 3075, 7880c -2,2 -3,3 -5,5z" class="c10"/>
<path d="M 3085, 1290c 9,-18 36,-36 -5,5z" class="c2"/>
<path d="M 3085, 6400c -2,2 -3,3 -5,5z" class="c13"/>
<path d="M 3085, 7880c -2,2 -3,3 -5,5z" class="c2"/>
<path d="M 3105, 6410c 9,18 13,14 -5,5z" class="c2"/>
<path d="M 3105, 7870c -2,2 -3,3 -5,5z" class="c6"/>
<path d="M 3115, 1260c -2,2 -3,3 -5,5z" class="c13"/>
<path d="M 3115, 7870c -2,2 -3,3 -5,5z" class="c2"/>
<path d="M 3125, 6430c -2,2 -3,3 -5,5z" class="c10"/>
<path d="M 3135, 1250c 6,-13 13,-13 -5,5z" class="c2"/>
<path d="M 3135, 6440c -2,2 -3,3 -5,5z" class="c16"/>
<path d="M 3135, 7860c 23,0 1,5 -5,5z" class="c2"/>
<path d="M 3145, 6440c 18,36 31,23 -5,5z" class="c2"/>
<path d="M 3155, 1230c -2,2 -3,3 -5,5z" class="c10"/>
<path d="M 3165, 7850c 23,0 1,5 -5,5z" class="c2"/>
<path d="M 3175, 1220c 6,-13 13,-13 -5,5z" class="c2"/>
<path d="M 3175, 6470c -2,2 -3,3 -5,5z" class="c14"/>
<path d="M 3185, 6470c 9,18 13,14 -5,5z" class="c2"/>
<path d="M 3195, 1200c -2,2 -3,3 -5,5z" class="c10"/>
<path d="M 3195, 7840c -2,2 -3,3 -5,5z" class="c6"/>
<path d="M 3205, 6490c -2,2 -3,3 -5,5z" class="c10"/>
<path d="M 3205, 7840c -2,2 -3,3 -5,5z" class="c2"/>
<path d="M 3215, 1190c -2,2 -3,3 -5,5z" class="c2"/>
<path d="M 3225, 1180c -2,2 -3,3 -5,5z" class="c5"/>
<path d="M 3225, 6500c -2,2 -3,3 -5,5z" class="c2"/>
<path d="M 3225, 7830c -2,2 -3,3 -5,5z" class="c11"/>
<path d="M 3235, 1170c -2,2 -3,3 -5,5z" class="c16"/>
<path d="M 3235, 6510c -2,2 -3,3 -5,5z" class="c5"/>
<path d="M 3235, 7830c -2,2 -3,3 -5,5z" class="c2"/>
<path d="M 3245, 1170c 6,-13 13,-13 -5,5z" class="c2"/>
<path d="M 3245, 6520c -2,2 -3,3 -5,5z" class="c16"/>
<path d="M 3255, 6520c 9,18 13,14 -5,5z" class="c2"/>
<path d="M 3255, 7820c -2,2 -3,3 -5,5z" class="c14"/>
<path d="M 3265, 1150c -2,2 -3,3 -5,5z" class="c14"/>
<path d="M 3265, 7820c -2,2 -3,3 -5,5z" class="c2"/>
<path d="M 3275, 1150c 6,-13 13,-13 -5,5z" class="c2"/>
<path d="M 3275, 6540c -2,2 -3,3 -5,5z" class="c14"/>
<path d="M 3285, 6540c 9,18 13,14 -5,5z" class="c2"/>
<path d="M 3285, 7810c -2,2 -3,3 -5,5z" class="c16"/>
<path d="M 3295, 1130c -2,2 -3,3 -5,5z" class="c3"/>
<path d="M 3295, 7810c 23,0 1,5 -5,5z" class="c2"/>
<path d="M 3305, 6560c -2,2 -3,3 -5,5z" class="c11"/>
<path d="M 3315, 1120c -2,2 -3,3 -5,5z" class="c2"/>
<path d="M 3315, 6560c 9,18 13,14 -5,5z" class="c2"/>
<path d="M 3325, 1110c -2,2 -3,3 -5,5z" class="c11"/>
<path d="M 3325, 7800c 23,0 1,5 -5,5z" class="c2"/>
<path d="M 3335, 6580c -2,2 -3,3 -5,5z" class="c15"/>
<path d="M 3345, 1100c -2,2 -3,3 -5,5z" class="c2"/>
<path d="M 3345, 6580c 9,18 13,14 -5,5z" class="c2"/>
<path d="M 3355, 1090c -2,2 -3,3 -5,5z" class="c14"/>
<path d="M 3355, 7790c -2,2 -3,3 -5,5z" class="c5"/>
<path d="M 3365, 1090c 6,-13 13,-13 -5,5z" class="c2"/>
<path d="M 3365, 7790c -2,2 -3,3 -5,5z" class="c2"/>
<path d="M 3375, 6600c -2,2 -3,3 -5,5z" class="c2"/>
<path d="M 3385, 1070c -2,2 -3,3 -5,5z" class="c16"/>
<path d="M 3385, 6610c -2,2 -3,3 -5,5z" class="c9"/>
<path d="M 3385, 7780c -2,2 -3,3 -5,5z" class="c10"/>
<path d="M 3395, 1070c -2,2 -3,3 -5,5z" class="c2"/>
<path d="M 3395, 7780c -2,2 -3,3 -5,5z" class="c2"/>
<path d="M 3405, 1060c -2,2 -3,3 -5,5z" class="c3"/>
<path d="M 3405, 6620c -2,2 -3,3 -5,5z" class="c2"/>
<path d="M 3415, 6630c -2,2 -3,3 -5,5z" class="c13"/>
<path d="M 3425, 1050c -2,2 -3,3 -5,5z" class="c2"/>
<path d="M 3425, 6630c 9,18 13,14 -5,5z" class="c2"/>
<path d="M 3425, 7770c -2,2 -3,3 -5,5z" class="c6"/>
<path d="M 3435, 1040c -2,2 -3,3 -5,5z" class="c10"/>
<path d="M 3435, 7770c -2,2 -3,3 -5,5z" class="c2"/>
<path d="M 3445, 1040c 6,-13 13,-13 -5,5z" class="c2"/>
<path d="M 3445, 6650c -2,2 -3,3 -5,5z" class="c16"/>
<path d="M 3455, 6650c -2,2 -3,3 -5,5z" class="c2"/>
<path d="M 3465, 6660c -2,2 -3,3 -5,5z" class="c11"/>
<path d="M 3465, 7760c 23,0 1,5 -5,5z" class="c2"/>
<path d="M 3475, 1020c -2,2 -3,3 -5,5z" class="c2"/>
<path d="M 3475, 6660c 9,18 13,14 -5,5z" class="c2"/>
<path d="M 3485, 1010c -2,2 -3,3 -5,5z" class="c15"/>
<path d="M 3495, 1010c -2,2 -3,3 -5,5z" class="c2"/>
<path d="M 3505, 1000c -2,2 -3,3 -5,5z" class="c12"/>
<path d="M 3505, 6680c -2,2 -3,3 -5,5z" class="c2"/>
<path d="M 3505, 7750c 23,0 1,5 -5,5z" class="c2"/>
<path d="M 3515, 1000c -2,2 -3,3 -5,5z" class="c2"/>
<path d="M 3525, 990c -2,2 -3,3 -5,5z" class="c4"/>
<path d="M 3525, 6690c -2,2 -3,3 -5,5z" class="c2"/>
<path d="M 3535, 6700c -2,2 -3,3 -5,5z" class="c13"/>
<path d="M 3535, 7740c -2,2 -3,3 -5,5z" class="c15"/>
<path d="M 3545, 980c -2,2 -3,3 -5,5z" class="c2"/>
<path d="M 3545, 6700c -2,2 -3,3 -5,5z" class="c2"/>
<path d="M 3545, 7740c 23,0 1,5 -5,5z" class="c2"/>
<path d="M 3555, 6710c -2,2 -3,3 -5,5z" class="c5"/>
<path d="M 3565, 970c -2,2 -3,3 -5,5z" class="c2"/>
<path d="M 3575, 960c -2,2 -3,3 -5,5z" class="c12"/>
<path d="M 3575, 6720c -2,2 -3,3 -5,5z" class="c2"/>
<path d="M 3575, 7730c -2,2 -3,3 -5,5z" class="c14"/>
<path d="M 3585, 960c -2,2 -3,3 -5,5z" class="c2"/>
<path d="M 3585, 7730c 23,0 1,5 -5,5z" class="c2"/>
<path d="M 3595, 950c -2,2 -3,3 -5,5z" class="c12"/>
<path d="M 3595, 6730c -2,2 -3,3 -5,5z" class="c2"/>
<path d="M 3605, 950c -2,2 -3,3 -5,5z" class="c2"/>
<path d="M 3615, 940c -2,2 -3,3 -5,5z" class="c12"/>
<path d="M 3615, 6740c -2,2 -3,3 -5,5z" class="c2"/>
<path d="M 3615, 7720c -2,2 -3,3 -5,5z" class="c3"/>
<path d="M 3625, 940c -2,2 -3,3 -5,5z" class="c2"/>
<path d="M 3625, 7720c 23,0 1,5 -5,5z" class="c2"/>
<path d="M 3635, 930c -2,2 -3,3 -5,5z" class="c10"/>
<path d="M 3635, 6750c -2,2 -3,3 -5,5z" class="c2"/>
<path d="M 3645, 930c -2,2 -3,3 -5,5z" class="c2"/>
<path d="M 3655, 920c -2,2 -3,3 -5,5z" class="c10"/>
<path d="M 3655, 6760c -2,2 -3,3 -5,5z" class="c2"/>
<path d="M 3655, 7710c -2,2 -3,3 -5,5z" class="c16"/>
<path d="M 3665, 920c -2,2 -3,3 -5,5z" class="c2"/>
<path d="M 3665, 7710c 23,0 1,5 -5,5z" class="c2"/>
<path d="M 3675, 910c -2,2 -3,3 -5,5z" class="c10"/>
<path d="M 3675, 6770c -2,2 -3,3 -5,5z" class="c2"/>
<path d="M 3685, 910c -2,2 -3,3 -5,5z" class="c2"/>
<path d="M 3695, 900c -2,2 -3,3 -5,5z" class="c10"/>
<path d="M 3695, 6780c -2,2 -3,3 -5,5z" class="c2"/>
<path d="M 3705, 900c -2,2 -3,3 -5,5z" class="c2"/>
<path d="M 3705, 7700c -2,2 -3,3 -5,5z" class="c13"/>
<path d="M 3715, 890c -2,2 -3,3 -5,5z" class="c10"/>
<path d="M 3715, 6790c -2,2 -3,3 -5,5z" class="c2"/>
<path d="M 3715, 7700c 23,0 1,5 -5,5z" class="c2"/>
<path d="M 3725, 890c -2,2 -3,3 -5,5z" class="c2"/>
<path d="M 3735, 880c -2,2 -3,3 -5,5z" class="c9"/>
<path d="M 3735, 6800c -2,2 -3,3 -5,5z" class="c2"/>
<path d="M 3745, 880c -2,2 -3,3 -5,5z" class="c2"/>
<path d="M 3755, 870c -2,2 -3,3 -5,5z" class="c16"/>
<path d="M 3755, 6810c 23,0 1,5 -5,5z" class="c2"/>
<path d="M 3755, 7690c -2,2 -3,3 -5,5z" class="c10"/>
<path d="M 3765, 870c -2,2 -3,3 -5,5z" class="c2"/>
<path d="M 3765, 7690c 23,0 1,5 -5,5z" class="c2"/>
<path d="M 3775, 6820c -2,2 -3,3 -5,5z" class="c9"/>
<path d="M 3785, 860c -2,2 -3,3 -5,5z" class="c2"/>
<path d="M 3785, 6820c -2,2 -3,3 -5,5z" class="c2"/>
<path d="M 3795, 6830c -2,2 -3,3 -5,5z" class="c15"/>
<path d="M 3805, 850c -2,2 -3,3 -5,5z" class="c4"/>
<path d="M 3805, 6830c -2,2 -3,3 -5,5z" class="c2"/>
<path d="M 3805, 7680c -2,2 -3,3 -5,5z" class="c3"/>
<path d="M 3815, 850c -2,2 -3,3 -5,5z" class="c2"/>
<path d="M 3815, 7680c 23,0 1,5 -5,5z" class="c2"/>
<path d="M 3825, 840c -2,2 -3,3 -5,5z" class="c11"/>
<path d="M 3825, 6840c -2,2 -3,3 -5,5z" class="c2"/>
<path d="M 3835, 840c -2,2 -3,3 -5,5z" class="c2"/>
<path d="M 3845, 830c -2,2 -3,3 -5,5z" class="c16"/>
<path d="M 3845, 6850c 23,0 1,5 -5,5z" class="c2"/>
<path d="M 3845, 7670c -2,2 -3,3 -5,5z" class="c16"/>
<path d="M 3855, 830c -2,2 -3,3 -5,5z" class="c2"/>
<path d="M 3855, 7670c 23,0 1,5 -5,5z" class="c2"/>
<path d="M 3865, 6860c -2,2 -3,3 -5,5z" class="c9"/>
<path d="M 3875, 820c 23,0 1,5 -5,5z" class="c2"/>
<path d="M 3875, 6860c -2,2 -3,3 -5,5z" class="c2"/>
<path d="M 3895, 810c -2,2 -3,3 -5,5z" class="c14"/>
<path d="M 3895, 6870c -2,2 -3,3 -5,5z" class="c2"/>
<path d="M 3895, 7660c -2,2 -3,3 -5,5z" class="c13"/>
<path d="M 3905, 810c -2,2 -3,3 -5,5z" class="c2"/>
<path d="M 3905, 7660c 29,0 16,5 -5,5z" class="c2"/>
<path d="M 3915, 6880c -2,2 -3,3 -5,5z" class="c13"/>
<path d="M 3925, 800c -2,2 -3,3 -5,5z" class="c5"/>
<path d="M 3925, 6880c -2,2 -3,3 -5,5z" class="c2"/>
<path d="M 3935, 800c -2,2 -3,3 -5,5z" class="c2"/>
<path d="M 3945, 6890c 23,0 1,5 -5,5z" class="c2"/>
<path d="M 3955, 790c -2,2 -3,3 -5,5z" class="c2"/>
<path d="M 3955, 7650c -2,2 -3,3 -5,5z" class="c9"/>
<path d="M 3965, 6900c -2,2 -3,3 -5,5z" class="c16"/>
<path d="M 3965, 7650c 23,0 1,5 -5,5z" class="c2"/>
<path d="M 3975, 780c -2,2 -3,3 -5,5z" class="c13"/>
<path d="M 3975, 6900c -2,2 -3,3 -5,5z" class="c2"/>
<path d="M 3985, 780c -2,2 -3,3 -5,5z" class="c2"/>
<path d="M 3995, 6910c -2,2 -3,3 -5,5z" class="c7"/>
<path d="M 4005, 770c -2,2 -3,3 -5,5z" class="c4"/>
<path d="M 4005, 6910c -2,2 -3,3 -5,5z" class="c2"/>
<path d="M 4005, 7640c -2,2 -3,3 -5,5z" class="c16"/>
<path d="M 4015, 770c -2,2 -3,3 -5,5z" class="c2"/>
<path d="M 4015, 7640c 29,0 16,5 -5,5z" class="c2"/>
<path d="M 4025, 760c -2,2 -3,3 -5,5z" class="c16"/>
<path d="M 4025, 6920c 23,0 1,5 -5,5z" class="c2"/>
<path d="M 4035, 760c 23,0 1,5 -5,5z" class="c2"/>
<path d="M 4055, 6930c 23,0 1,5 -5,5z" class="c2"/>
<path d="M 4065, 750c 23,0 1,5 -5,5z" class="c2"/>
<path d="M 4065, 7630c -2,2 -3,3 -5,5z" class="c13"/>
<path d="M 4075, 7630c 29,0 16,5 -5,5z" class="c2"/>
<path d="M 4085, 6940c 23,0 1,5 -5,5z" class="c2"/>
<path d="M 4095, 740c 23,0 1,5 -5,5z" class="c2"/>
<path d="M 4115, 6950c 23,0 1,5 -5,5z" class="c2"/>
<path d="M 4125, 730c 23,0 1,5 -5,5z" class="c2"/>
<path d="M 4125, 7620c -2,2 -3,3 -5,5z" class="c10"/>
<path d="M 4135, 7620c 29,0 16,5 -5,5z" class="c2"/>
<path d="M 4145, 720c -2,2 -3,3 -5,5z" class="c12"/>
<path d="M 4145, 6960c -2,2 -3,3 -5,5z" class="c4"/>
<path d="M 4155, 720c -2,2 -3,3 -5,5z" class="c2"/>
<path d="M 4155, 6960c -2,2 -3,3 -5,5z" class="c2"/>
<path d="M 4175, 6970c -2,2 -3,3 -5,5z" class="c7"/>
<path d="M 4185, 710c -2,2 -3,3 -5,5z" class="c3"/>
<path d="M 4185, 6970c -2,2 -3,3 -5,5z" class="c2"/>
<path d="M 4195, 710c -2,2 -3,3 -5,5z" class="c2"/>
<path d="M 4195, 7610c -2,2 -3,3 -5,5z" class="c12"/>
<path d="M 4205, 7610c 29,0 16,5 -5,5z" class="c2"/>
<path d="M 4215, 700c -2,2 -3,3 -5,5z" class="c16"/>
<path d="M 4215, 6980c 23,0 1,5 -5,5z" class="c2"/>
<path d="M 4225, 700c 23,0 1,5 -5,5z" class="c2"/>
<path d="M 4245, 6990c -2,2 -3,3 -5,5z" class="c12"/>
<path d="M 4255, 690c -2,2 -3,3 -5,5z" class="c11"/>
<path d="M 4255, 6990c 23,0 1,5 -5,5z" class="c2"/>
<path d="M 4265, 690c -2,2 -3,3 -5,5z" class="c2"/>
<path d="M 4265, 7600c -2,2 -3,3 -5,5z" class="c13"/>
<path d="M 4275, 7600c 29,0 16,5 -5,5z" class="c2"/>
<path d="M 4285, 7000c -2,2 -3,3 -5,5z" class="c3"/>
<path d="M 4295, 680c 23,0 1,5 -5,5z" class="c2"/>
<path d="M 4295, 7000c -2,2 -3,3 -5,5z" class="c2"/>
<path d="M 4315, 7010c -2,2 -3,3 -5,5z" class="c15"/>
<path d="M 4325, 670c -2,2 -3,3 -5,5z" class="c15"/>
<path d="M 4325, 7010c 23,0 1,5 -5,5z" class="c2"/>
<path d="M 4335, 670c 23,0 1,5 -5,5z" class="c2"/>
<path d="M 4335, 7590c -2,2 -3,3 -5,5z" class="c15"/>
<path d="M 4345, 7590c -2,2 -3,3 -5,5z" class="c3"/>
<path d="M 4355, 7590c 4,0 27,-3 30,0c 4,4 -33,5 -35,5z" class="c2"/>
<path d="M 4365, 7020c -2,2 -3,3 -5,5z" class="c6"/>
<path d="M 4375, 660c -2,2 -3,3 -5,5z" class="c6"/>
<path d="M 4375, 7020c 23,0 1,5 -5,5z" class="c2"/>
<path d="M 4385, 660c 23,0 1,5 -5,5z" class="c2"/>
<path d="M 4405, 7030c -2,2 -3,3 -5,5z" class="c14"/>
<path d="M 4415, 650c -2,2 -3,3 -5,5z" class="c15"/>
<path d="M 4415, 7030c 23,0 1,5 -5,5z" class="c2"/>
<path d="M 4425, 650c 23,0 1,5 -5,5z" class="c2"/>
<path d="M 4445, 7580c -2,2 -3,3 -5,5z" class="c7"/>
<path d="M 4455, 7040c 23,0 1,5 -5,5z" class="c2"/>
<path d="M 4455, 7580c 4,0 27,-3 30,0c 4,4 -33,5 -35,5z" class="c2"/>
<path d="M 4465, 640c -2,2 -3,3 -5,5z" class="c3"/>
<path d="M 4475, 640c 23,0 1,5 -5,5z" class="c2"/>
<path d="M 4495, 7050c -2,2 -3,3 -5,5z" class="c16"/>
<path d="M 4505, 7050c 29,0 16,5 -5,5z" class="c2"/>
<path d="M 4515, 630c -2,2 -3,3 -5,5z" class="c10"/>
<path d="M 4525, 630c 23,0 1,5 -5,5z" class="c2"/>
<path d="M 4545, 7570c -2,2 -3,3 -5,5z" class="c11"/>
<path d="M 4555, 7060c -2,2 -3,3 -5,5z" class="c14"/>
<path d="M 4555, 7570c 62,0 36,5 -5,5z" class="c2"/>
<path d="M 4565, 7060c 29,0 16,5 -5,5z" class="c2"/>
<path d="M 4575, 620c -2,2 -3,3 -5,5z" class="c3"/>
<path d="M 4585, 620c 23,0 1,5 -5,5z" class="c2"/>
<path d="M 4615, 7070c -2,2 -3,3 -5,5z" class="c12"/>
<path d="M 4625, 610c -2,2 -3,3 -5,5z" class="c10"/>
<path d="M 4625, 7070c 29,0 16,5 -5,5z" class="c2"/>
<path d="M 4635, 610c 4,0 27,-3 30,0c 4,4 -33,5 -35,5z" class="c2"/>
<path d="M 4665, 7560c -2,2 -3,3 -5,5z" class="c14"/>
<path d="M 4675, 7560c -2,2 -3,3 -5,5z" class="c5"/>
<path d="M 4685, 7080c -2,2 -3,3 -5,5z" class="c16"/>
<path d="M 4685, 7560c 93,0 56,5 -5,5z" class="c2"/>
<path d="M 4695, 7080c -2,2 -3,3 -5,5z" class="c3"/>
<path d="M 4705, 600c -2,2 -3,3 -5,5z" class="c9"/>
<path d="M 4705, 7080c 29,0 16,5 -5,5z" class="c2"/>
<path d="M 4715, 600c 29,0 16,5 -5,5z" class="c2"/>
<path d="M 4765, 7090c -2,2 -3,3 -5,5z" class="c12"/>
<path d="M 4775, 7090c 4,0 27,-3 30,0c 4,4 -33,5 -35,5z" class="c2"/>
<path d="M 4785, 590c -2,2 -3,3 -5,5z" class="c8"/>
<path d="M 4795, 590c 85,0 40,5 -5,5z" class="c2"/>
<path d="M 4835, 7550c -2,2 -3,3 -5,5z" class="c11"/>
<path d="M 4845, 7550c -2,2 -3,3 -5,5z" class="c6"/>
<path d="M 4855, 7550c 73,0 246,-4 250,0c 4,4 -33,5 -35,5c -73,0 -147,0 -220,0z" class="c2"/>
<path d="M 4885, 7100c -2,2 -3,3 -5,5z" class="c3"/>
<path d="M 4895, 7100c 93,0 56,5 -5,5z" class="c2"/>
<path d="M 4925, 580c -2,2 -3,3 -5,5z" class="c13"/>
<path d="M 4935, 580c -2,2 -3,3 -5,5z" class="c7"/>
<path d="M 4945, 580c 38,0 149,-11 160,0c 3,3 -50,5 -165,5z" class="c2"/>
<path d="M 5135, 580c 38,0 149,-11 160,0c 3,3 -50,5 -165,5z" class="c2"/>
<path d="M 5135, 7550c 73,0 246,-4 250,0c 4,4 -33,5 -35,5c -73,0 -147,0 -220,0z" class="c2"/>
<path d="M 5285, 7100c 93,0 56,5 -5,5z" class="c2"/>
<path d="M 5305, 580c -2,2 -3,3 -5,5z" class="c7"/>
<path d="M 5315, 580c -2,2 -3,3 -5,5z" class="c13"/>
<path d="M 5355, 7100c -2,2 -3,3 -5,5z" class="c3"/>
<path d="M 5395, 590c 85,0 40,5 -5,5z" class="c2"/>
<path d="M 5395, 7550c -2,2 -3,3 -5,5z" class="c6"/>
<path d="M 5405, 7550c -2,2 -3,3 -5,5z" class="c11"/>
<path d="M 5435, 7090c 4,0 27,-3 30,0c 4,4 -33,5 -35,5z" class="c2"/>
<path d="M 5455, 590c -2,2 -3,3 -5,5z" class="c8"/>
<path d="M 5475, 7090c -2,2 -3,3 -5,5z" class="c12"/>
<path d="M 5495, 7560c 93,0 56,5 -5,5z" class="c2"/>
<path d="M 5505, 600c 29,0 16,5 -5,5z" class="c2"/>
<path d="M 5515, 7080c 29,0 16,5 -5,5z" class="c2"/>
<path d="M 5535, 600c -2,2 -3,3 -5,5z" class="c9"/>
<path d="M 5545, 7080c -2,2 -3,3 -5,5z" class="c3"/>
<path d="M 5555, 7080c -2,2 -3,3 -5,5z" class="c16"/>
<path d="M 5565, 7560c -2,2 -3,3 -5,5z" class="c5"/>
<path d="M 5575, 610c 4,0 27,-3 30,0c 4,4 -33,5 -35,5z" class="c2"/>
<path d="M 5575, 7560c -2,2 -3,3 -5,5z" class="c14"/>
<path d="M 5595, 7070c 29,0 16,5 -5,5z" class="c2"/>
<path d="M 5615, 610c -2,2 -3,3 -5,5z" class="c10"/>
<path d="M 5625, 7070c -2,2 -3,3 -5,5z" class="c12"/>
<path d="M 5645, 620c 23,0 1,5 -5,5z" class="c2"/>
<path d="M 5645, 7570c 62,0 36,5 -5,5z" class="c2"/>
<path d="M 5655, 7060c 29,0 16,5 -5,5z" class="c2"/>
<path d="M 5665, 620c -2,2 -3,3 -5,5z" class="c3"/>
<path d="M 5685, 7060c -2,2 -3,3 -5,5z" class="c15"/>
<path d="M 5695, 7570c -2,2 -3,3 -5,5z" class="c12"/>
<path d="M 5705, 630c 23,0 1,5 -5,5z" class="c2"/>
<path d="M 5715, 7050c 29,0 16,5 -5,5z" class="c2"/>
<path d="M 5725, 630c -2,2 -3,3 -5,5z" class="c10"/>
<path d="M 5745, 7050c -2,2 -3,3 -5,5z" class="c16"/>
<path d="M 5745, 7580c 62,0 36,5 -5,5z" class="c2"/>
<path d="M 5755, 640c 23,0 1,5 -5,5z" class="c2"/>
<path d="M 5775, 640c -2,2 -3,3 -5,5z" class="c3"/>
<path d="M 5775, 7040c 23,0 1,5 -5,5z" class="c2"/>
<path d="M 5795, 7580c -2,2 -3,3 -5,5z" class="c8"/>
<path d="M 5805, 650c 23,0 1,5 -5,5z" class="c2"/>
<path d="M 5815, 7030c 23,0 1,5 -5,5z" class="c2"/>
<path d="M 5825, 650c -2,2 -3,3 -5,5z" class="c15"/>
<path d="M 5835, 7030c -2,2 -3,3 -5,5z" class="c14"/>
<path d="M 5845, 660c 23,0 1,5 -5,5z" class="c2"/>
<path d="M 5855, 7020c 23,0 1,5 -5,5z" class="c2"/>
<path d="M 5855, 7590c 4,0 27,-3 30,0c 4,4 -33,5 -35,5z" class="c2"/>
<path d="M 5865, 660c -2,2 -3,3 -5,5z" class="c7"/>
<path d="M 5875, 7020c -2,2 -3,3 -5,5z" class="c6"/>
<path d="M 5895, 670c 23,0 1,5 -5,5z" class="c2"/>
<path d="M 5895, 7590c -2,2 -3,3 -5,5z" class="c3"/>
<path d="M 5905, 7010c 23,0 1,5 -5,5z" class="c2"/>
<path d="M 5905, 7590c -2,2 -3,3 -5,5z" class="c15"/>
<path d="M 5915, 670c -2,2 -3,3 -5,5z" class="c15"/>
<path d="M 5925, 7010c -2,2 -3,3 -5,5z" class="c15"/>
<path d="M 5935, 680c 23,0 1,5 -5,5z" class="c2"/>
<path d="M 5945, 7000c -2,2 -3,3 -5,5z" class="c2"/>
<path d="M 5945, 7600c 29,0 16,5 -5,5z" class="c2"/>
<path d="M 5955, 7000c -2,2 -3,3 -5,5z" class="c3"/>
<path d="M 5975, 690c -2,2 -3,3 -5,5z" class="c2"/>
<path d="M 5975, 6990c 23,0 1,5 -5,5z" class="c2"/>
<path d="M 5975, 7600c -2,2 -3,3 -5,5z" class="c13"/>
<path d="M 5985, 690c -2,2 -3,3 -5,5z" class="c11"/>
<path d="M 5995, 6990c -2,2 -3,3 -5,5z" class="c12"/>
<path d="M 6005, 700c 23,0 1,5 -5,5z" class="c2"/>
<path d="M 6015, 6980c 23,0 1,5 -5,5z" class="c2"/>
<path d="M 6015, 7610c 29,0 16,5 -5,5z" class="c2"/>
<path d="M 6025, 700c -2,2 -3,3 -5,5z" class="c16"/>
<path d="M 6045, 710c -2,2 -3,3 -5,5z" class="c2"/>
<path d="M 6045, 7610c -2,2 -3,3 -5,5z" class="c12"/>
<path d="M 6055, 710c -2,2 -3,3 -5,5z" class="c6"/>
<path d="M 6055, 6970c -2,2 -3,3 -5,5z" class="c2"/>
<path d="M 6065, 6970c -2,2 -3,3 -5,5z" class="c7"/>
<path d="M 6075, 720c 23,0 1,5 -5,5z" class="c2"/>
<path d="M 6085, 6960c -2,2 -3,3 -5,5z" class="c2"/>
<path d="M 6085, 7620c 29,0 16,5 -5,5z" class="c2"/>
<path d="M 6095, 720c -2,2 -3,3 -5,5z" class="c12"/>
<path d="M 6095, 6960c -2,2 -3,3 -5,5z" class="c4"/>
<path d="M 6105, 730c 23,0 1,5 -5,5z" class="c2"/>
<path d="M 6115, 6950c 23,0 1,5 -5,5z" class="c2"/>
<path d="M 6115, 7620c -2,2 -3,3 -5,5z" class="c10"/>
<path d="M 6135, 740c 23,0 1,5 -5,5z" class="c2"/>
<path d="M 6145, 6940c 23,0 1,5 -5,5z" class="c2"/>
<path d="M 6145, 7630c 29,0 16,5 -5,5z" class="c2"/>
<path d="M 6165, 750c 23,0 1,5 -5,5z" class="c2"/>
<path d="M 6175, 6930c 23,0 1,5 -5,5z" class="c2"/>
<path d="M 6175, 7630c -2,2 -3,3 -5,5z" class="c13"/>
<path d="M 6195, 760c 23,0 1,5 -5,5z" class="c2"/>
<path d="M 6205, 6920c 23,0 1,5 -5,5z" class="c2"/>
<path d="M 6205, 7640c 29,0 16,5 -5,5z" class="c2"/>
<path d="M 6225, 770c -2,2 -3,3 -5,5z" class="c2"/>
<path d="M 6235, 770c -2,2 -3,3 -5,5z" class="c4"/>
<path d="M 6235, 6910c -2,2 -3,3 -5,5z" class="c2"/>
<path d="M 6245, 6910c -2,2 -3,3 -5,5z" class="c7"/>
<path d="M 6255, 780c -2,2 -3,3 -5,5z" class="c2"/>
<path d="M 6265, 780c -2,2 -3,3 -5,5z" class="c13"/>
<path d="M 6265, 6900c -2,2 -3,3 -5,5z" class="c2"/>
<path d="M 6265, 7650c 23,0 1,5 -5,5z" class="c2"/>
<path d="M 6275, 6900c -2,2 -3,3 -5,5z" class="c16"/>
<path d="M 6285, 790c -2,2 -3,3 -5,5z" class="c2"/>
<path d="M 6285, 6890c 23,0 1,5 -5,5z" class="c2"/>
<path d="M 6285, 7650c -2,2 -3,3 -5,5z" class="c9"/>
<path d="M 6305, 800c -2,2 -3,3 -5,5z" class="c2"/>
<path d="M 6315, 800c -2,2 -3,3 -5,5z" class="c7"/>
<path d="M 6315, 6880c -2,2 -3,3 -5,5z" class="c2"/>
<path d="M 6315, 7660c 29,0 16,5 -5,5z" class="c2"/>
<path d="M 6325, 6880c -2,2 -3,3 -5,5z" class="c13"/>
<path d="M 6335, 810c -2,2 -3,3 -5,5z" class="c2"/>
<path d="M 6345, 810c -2,2 -3,3 -5,5z" class="c15"/>
<path d="M 6345, 6870c -2,2 -3,3 -5,5z" class="c2"/>
<path d="M 6345, 7660c -2,2 -3,3 -5,5z" class="c13"/>
<path d="M 6355, 820c 23,0 1,5 -5,5z" class="c2"/>
<path d="M 6365, 6860c -2,2 -3,3 -5,5z" class="c2"/>
<path d="M 6375, 6860c -2,2 -3,3 -5,5z" class="c9"/>
<path d="M 6375, 7670c 23,0 1,5 -5,5z" class="c2"/>
<path d="M 6385, 830c -2,2 -3,3 -5,5z" class="c2"/>
<path d="M 6395, 830c -2,2 -3,3 -5,5z" class="c16"/>
<path d="M 6395, 6850c -2,2 -3,3 -5,5z" class="c2"/>
<path d="M 6395, 7670c -2,2 -3,3 -5,5z" class="c16"/>
<path d="M 6405, 840c -2,2 -3,3 -5,5z" class="c2"/>
<path d="M 6415, 840c -2,2 -3,3 -5,5z" class="c11"/>
<path d="M 6415, 6840c -2,2 -3,3 -5,5z" class="c2"/>
<path d="M 6415, 7680c 23,0 1,5 -5,5z" class="c2"/>
<path d="M 6425, 850c -2,2 -3,3 -5,5z" class="c2"/>
<path d="M 6435, 850c -2,2 -3,3 -5,5z" class="c4"/>
<path d="M 6435, 6830c -2,2 -3,3 -5,5z" class="c2"/>
<path d="M 6435, 7680c -2,2 -3,3 -5,5z" class="c3"/>
<path d="M 6445, 6830c -2,2 -3,3 -5,5z" class="c15"/>
<path d="M 6455, 860c -2,2 -3,3 -5,5z" class="c2"/>
<path d="M 6455, 6820c -2,2 -3,3 -5,5z" class="c2"/>
<path d="M 6465, 6820c -2,2 -3,3 -5,5z" class="c9"/>
<path d="M 6465, 7690c 23,0 1,5 -5,5z" class="c2"/>
<path d="M 6475, 870c -2,2 -3,3 -5,5z" class="c2"/>
<path d="M 6485, 870c -2,2 -3,3 -5,5z" class="c16"/>
<path d="M 6485, 6810c -2,2 -3,3 -5,5z" class="c2"/>
<path d="M 6485, 7690c -2,2 -3,3 -5,5z" class="c10"/>
<path d="M 6495, 880c -2,2 -3,3 -5,5z" class="c2"/>
<path d="M 6505, 880c -2,2 -3,3 -5,5z" class="c11"/>
<path d="M 6505, 6800c -2,2 -3,3 -5,5z" class="c2"/>
<path d="M 6515, 890c -2,2 -3,3 -5,5z" class="c2"/>
<path d="M 6515, 7700c 23,0 1,5 -5,5z" class="c2"/>
<path d="M 6525, 890c -2,2 -3,3 -5,5z" class="c10"/>
<path d="M 6525, 6790c -2,2 -3,3 -5,5z" class="c2"/>
<path d="M 6535, 900c -2,2 -3,3 -5,5z" class="c2"/>
<path d="M 6535, 7700c -2,2 -3,3 -5,5z" class="c13"/>
<path d="M 6545, 900c -2,2 -3,3 -5,5z" class="c10"/>
<path d="M 6545, 6780c -2,2 -3,3 -5,5z" class="c2"/>
<path d="M 6555, 910c -2,2 -3,3 -5,5z" class="c2"/>
<path d="M 6565, 910c -2,2 -3,3 -5,5z" class="c10"/>
<path d="M 6565, 6770c -2,2 -3,3 -5,5z" class="c2"/>
<path d="M 6565, 7710c 23,0 1,5 -5,5z" class="c2"/>
<path d="M 6575, 920c -2,2 -3,3 -5,5z" class="c2"/>
<path d="M 6585, 920c -2,2 -3,3 -5,5z" class="c12"/>
<path d="M 6585, 6760c -2,2 -3,3 -5,5z" class="c2"/>
<path d="M 6585, 7710c -2,2 -3,3 -5,5z" class="c16"/>
<path d="M 6595, 930c -2,2 -3,3 -5,5z" class="c2"/>
<path d="M 6605, 930c -2,2 -3,3 -5,5z" class="c12"/>
<path d="M 6605, 6750c -2,2 -3,3 -5,5z" class="c2"/>
<path d="M 6605, 7720c 23,0 1,5 -5,5z" class="c2"/>
<path d="M 6615, 940c -2,2 -3,3 -5,5z" class="c2"/>
<path d="M 6625, 940c -2,2 -3,3 -5,5z" class="c12"/>
<path d="M 6625, 6740c -2,2 -3,3 -5,5z" class="c2"/>
<path d="M 6625, 7720c -2,2 -3,3 -5,5z" class="c3"/>
<path d="M 6635, 950c -2,2 -3,3 -5,5z" class="c2"/>
<path d="M 6645, 950c -2,2 -3,3 -5,5z" class="c12"/>
<path d="M 6645, 6730c -2,2 -3,3 -5,5z" class="c2"/>
<path d="M 6645, 7730c 23,0 1,5 -5,5z" class="c2"/>
<path d="M 6655, 960c -2,2 -3,3 -5,5z" class="c2"/>
<path d="M 6665, 960c -2,2 -3,3 -5,5z" class="c12"/>
<path d="M 6665, 6720c -2,2 -3,3 -5,5z" class="c2"/>
<path d="M 6665, 7730c -2,2 -3,3 -5,5z" class="c14"/>
<path d="M 6675, 970c -2,2 -3,3 -5,5z" class="c2"/>
<path d="M 6685, 6710c -2,2 -3,3 -5,5z" class="c8"/>
<path d="M 6685, 7740c 23,0 1,5 -5,5z" class="c2"/>
<path d="M 6695, 980c -2,2 -3,3 -5,5z" class="c2"/>
<path d="M 6695, 6700c -2,2 -3,3 -5,5z" class="c2"/>
<path d="M 6705, 6700c -2,2 -3,3 -5,5z" class="c13"/>
<path d="M 6705, 7740c -2,2 -3,3 -5,5z" class="c15"/>
<path d="M 6715, 990c 9,18 13,14 -5,5z" class="c2"/>
<path d="M 6715, 6690c -2,2 -3,3 -5,5z" class="c2"/>
<path d="M 6725, 7750c 23,0 1,5 -5,5z" class="c2"/>
<path d="M 6735, 1000c -2,2 -3,3 -5,5z" class="c11"/>
<path d="M 6735, 6680c -2,2 -3,3 -5,5z" class="c2"/>
<path d="M 6745, 1010c -2,2 -3,3 -5,5z" class="c2"/>
<path d="M 6755, 1010c -2,2 -3,3 -5,5z" class="c16"/>
<path d="M 6755, 6670c -2,2 -3,3 -5,5z" class="c4"/>
<path d="M 6765, 1020c -2,2 -3,3 -5,5z" class="c2"/>
<path d="M 6765, 6660c -2,2 -3,3 -5,5z" class="c2"/>
<path d="M 6765, 7760c 23,0 1,5 -5,5z" class="c2"/>
<path d="M 6775, 6660c -2,2 -3,3 -5,5z" class="c12"/>
<path d="M 6785, 1030c 9,18 13,14 -5,5z" class="c2"/>
<path d="M 6785, 6650c -2,2 -3,3 -5,5z" class="c2"/>
<path d="M 6795, 6650c -2,2 -3,3 -5,5z" class="c16"/>
<path d="M 6805, 1040c -2,2 -3,3 -5,5z" class="c10"/>
<path d="M 6805, 6640c 6,-13 13,-13 -5,5z" class="c2"/>
<path d="M 6805, 7770c -2,2 -3,3 -5,5z" class="c2"/>
<path d="M 6815, 1050c -2,2 -3,3 -5,5z" class="c2"/>
<path d="M 6815, 7770c -2,2 -3,3 -5,5z" class="c7"/>
<path d="M 6825, 6630c -2,2 -3,3 -5,5z" class="c14"/>
<path d="M 6835, 1060c -2,2 -3,3 -5,5z" class="c3"/>
<path d="M 6835, 6620c -2,2 -3,3 -5,5z" class="c2"/>
<path d="M 6835, 7780c 23,0 1,5 -5,5z" class="c2"/>
<path d="M 6845, 1070c -2,2 -3,3 -5,5z" class="c2"/>
<path d="M 6855, 1070c -2,2 -3,3 -5,5z" class="c16"/>
<path d="M 6855, 6610c -2,2 -3,3 -5,5z" class="c9"/>
<path d="M 6855, 7780c -2,2 -3,3 -5,5z" class="c10"/>
<path d="M 6865, 1080c 9,18 13,14 -5,5z" class="c2"/>
<path d="M 6865, 6600c -2,2 -3,3 -5,5z" class="c2"/>
<path d="M 6875, 7790c -2,2 -3,3 -5,5z" class="c2"/>
<path d="M 6885, 1090c -2,2 -3,3 -5,5z" class="c14"/>
<path d="M 6885, 6590c 6,-13 13,-13 -5,5z" class="c2"/>
<path d="M 6885, 7790c -2,2 -3,3 -5,5z" class="c5"/>
<path d="M 6895, 1100c -2,2 -3,3 -5,5z" class="c2"/>
<path d="M 6905, 6580c -2,2 -3,3 -5,5z" class="c15"/>
<path d="M 6905, 7800c 23,0 1,5 -5,5z" class="c2"/>
<path d="M 6915, 1110c -2,2 -3,3 -5,5z" class="c11"/>
<path d="M 6915, 6570c 6,-13 13,-13 -5,5z" class="c2"/>
<path d="M 6925, 1120c -2,2 -3,3 -5,5z" class="c2"/>
<path d="M 6935, 6560c -2,2 -3,3 -5,5z" class="c11"/>
<path d="M 6935, 7810c 23,0 1,5 -5,5z" class="c2"/>
<path d="M 6945, 1130c -2,2 -3,3 -5,5z" class="c6"/>
<path d="M 6945, 6550c 6,-13 13,-13 -5,5z" class="c2"/>
<path d="M 6955, 1140c 9,18 13,14 -5,5z" class="c2"/>
<path d="M 6955, 7810c -2,2 -3,3 -5,5z" class="c16"/>
<path d="M 6965, 6540c -2,2 -3,3 -5,5z" class="c15"/>
<path d="M 6975, 1150c -2,2 -3,3 -5,5z" class="c14"/>
<path d="M 6975, 6530c 6,-13 13,-13 -5,5z" class="c2"/>
<path d="M 6975, 7820c -2,2 -3,3 -5,5z" class="c2"/>
<path d="M 6985, 1160c 9,18 13,14 -5,5z" class="c2"/>
<path d="M 6985, 7820c -2,2 -3,3 -5,5z" class="c14"/>
<path d="M 7005, 6510c -2,2 -3,3 -5,5z" class="c5"/>
<path d="M 7005, 7830c -2,2 -3,3 -5,5z" class="c2"/>
<path d="M 7015, 1180c -2,2 -3,3 -5,5z" class="c5"/>
<path d="M 7015, 6500c -2,2 -3,3 -5,5z" class="c2"/>
<path d="M 7015, 7830c -2,2 -3,3 -5,5z" class="c10"/>
<path d="M 7025, 1190c -2,2 -3,3 -5,5z" class="c2"/>
<path d="M 7035, 6490c -2,2 -3,3 -5,5z" class="c10"/>
<path d="M 7035, 7840c -2,2 -3,3 -5,5z" class="c2"/>
<path d="M 7045, 1200c -2,2 -3,3 -5,5z" class="c10"/>
<path d="M 7045, 6480c 6,-13 13,-13 -5,5z" class="c2"/>
<path d="M 7045, 7840c -2,2 -3,3 -5,5z" class="c5"/>
<path d="M 7055, 1210c 9,18 13,14 -5,5z" class="c2"/>
<path d="M 7065, 6470c -2,2 -3,3 -5,5z" class="c14"/>
<path d="M 7065, 7850c 23,0 1,5 -5,5z" class="c2"/>
<path d="M 7075, 6460c -2,2 -3,3 -5,5z" class="c3"/>
<path d="M 7085, 1230c -2,2 -3,3 -5,5z" class="c10"/>
<path d="M 7085, 6450c 6,-13 13,-13 -5,5z" class="c2"/>
<path d="M 7095, 1240c 9,18 13,14 -5,5z" class="c2"/>
<path d="M 7095, 7860c 23,0 1,5 -5,5z" class="c2"/>
<path d="M 7115, 6430c -2,2 -3,3 -5,5z" class="c10"/>
<path d="M 7125, 1260c -2,2 -3,3 -5,5z" class="c13"/>
<path d="M 7125, 6420c 6,-13 13,-13 -5,5z" class="c2"/>
<path d="M 7125, 7870c -2,2 -3,3 -5,5z" class="c2"/>
<path d="M 7135, 1270c 18,36 31,23 -5,5z" class="c2"/>
<path d="M 7135, 7870c -2,2 -3,3 -5,5z" class="c6"/>
<path d="M 7155, 6400c -2,2 -3,3 -5,5z" class="c13"/>
<path d="M 7155, 7880c -2,2 -3,3 -5,5z" class="c2"/>
<path d="M 7165, 1290c -2,2 -3,3 -5,5z" class="c16"/>
<path d="M 7165, 6390c -2,2 -3,3 -5,5z" class="c3"/>
<path d="M 7165, 7880c -2,2 -3,3 -5,5z" class="c11"/>
<path d="M 7175, 1300c -2,2 -3,3 -5,5z" class="c7"/>
<path d="M 7175, 6380c 6,-13 13,-13 -5,5z" class="c2"/>
<path d="M 7185, 1310c 18,36 31,23 -5,5z" class="c2"/>
<path d="M 7185, 7890c -2,2 -3,3 -5,5z" class="c2"/>
<path d="M 7195, 7890c -2,2 -3,3 -5,5z" class="c13"/>
<path d="M 7205, 6360c -2,2 -3,3 -5,5z" class="c13"/>
<path d="M 7215, 1330c -2,2 -3,3 -5,5z" class="c16"/>
<path d="M 7215, 6350c -2,2 -3,3 -5,5z" class="c9"/>
<path d="M 7215, 7900c -2,2 -3,3 -5,5z" class="c2"/>
<path d="M 7225, 1340c -2,2 -3,3 -5,5z" class="c13"/>
<path d="M 7225, 6340c 5,-10 64,-64 -5,5z" class="c2"/>
<path d="M 7225, 7900c -2,2 -3,3 -5,5z" class="c15"/>
<path d="M 7235, 1350c -2,2 -3,3 -5,5z" class="c6"/>
<path d="M 7245, 1360c 7,15 10,10 20,20c 29,29 -16,-10 -25,-15z" class="c2"/>
<path d="M 7245, 7910c -2,2 -3,3 -5,5z" class="c2"/>
<path d="M 7265, 7920c 23,0 1,5 -5,5z" class="c2"/>
<path d="M 7275, 6300c -2,2 -3,3 -5,5z" class="c13"/>
<path d="M 7285, 6290c -2,2 -3,3 -5,5z" class="c9"/>
<path d="M 7295, 1400c -2,2 -3,3 -5,5z" class="c13"/>
<path d="M 7295, 6280c 9,-18 38,-44 55,-55c 1,-1 21,-21 15,-10c -5,11 -62,57 -75,70z" class="c2"/>
<path d="M 7295, 7930c 23,0 1,5 -5,5z" class="c2"/>
<path d="M 7305, 1410c -2,2 -3,3 -5,5z" class="c9"/>
<path d="M 7315, 1420c 19,37 209,199 220,220c 6,11 -14,-9 -15,-10c -52,-34 -167,-184 -210,-205z" class="c2"/>
<path d="M 7325, 7940c -2,2 -3,3 -5,5z" class="c2"/>
<path d="M 7335, 7940c -2,2 -3,3 -5,5z" class="c14"/>
<path d="M 7345, 7950c 23,0 1,5 -5,5z" class="c2"/>
<path d="M 7375, 7960c -2,2 -3,3 -5,5z" class="c2"/>
<path d="M 7385, 7960c -2,2 -3,3 -5,5z" class="c14"/>
<path d="M 7395, 6190c -2,2 -3,3 -5,5z" class="c16"/>
<path d="M 7395, 7970c 23,0 1,5 -5,5z" class="c2"/>
<path d="M 7405, 6180c -2,2 -3,3 -5,5z" class="c14"/>
<path d="M 7415, 6170c -2,2 -3,3 -5,5z" class="c13"/>
<path d="M 7425, 6160c -2,2 -3,3 -5,5z" class="c11"/>
<path d="M 7425, 7980c -2,2 -3,3 -5,5z" class="c2"/>
<path d="M 7435, 6150c -2,2 -3,3 -5,5z" class="c10"/>
<path d="M 7435, 7980c -2,2 -3,3 -5,5z" class="c14"/>
<path d="M 7445, 6140c -2,2 -3,3 -5,5z" class="c12"/>
<path d="M 7445, 7990c 23,0 1,5 -5,5z" class="c2"/>
<path d="M 7455, 6130c -2,2 -3,3 -5,5z" class="c14"/>
<path d="M 7465, 6120c -2,2 -3,3 -5,5z" class="c15"/>
<path d="M 7475, 6100c 4,-8 79,-81 80,-80c 2,2 -78,78 -85,85z" class="c2"/>
<path d="M 7475, 8000c -2,2 -3,3 -5,5z" class="c2"/>
<path d="M 7485, 8000c -2,2 -3,3 -5,5z" class="c14"/>
<path d="M 7495, 8010c 23,0 1,5 -5,5z" class="c2"/>
<path d="M 7525, 8020c -2,2 -3,3 -5,5z" class="c2"/>
<path d="M 7535, 8020c -2,2 -3,3 -5,5z" class="c14"/>
<path d="M 7545, 1650c -2,2 -3,3 -5,5z" class="c6"/>
<path d="M 7545, 8030c -2,2 -3,3 -5,5z" class="c2"/>
<path d="M 7555, 1660c -2,2 -3,3 -5,5z" class="c12"/>
<path d="M 7555, 8030c -2,2 -3,3 -5,5z" class="c8"/>
<path d="M 7565, 1670c -2,2 -3,3 -5,5z" class="c15"/>
<path d="M 7565, 6010c -2,2 -3,3 -5,5z" class="c9"/>
<path d="M 7575, 1690c 7,15 10,10 20,20c 29,29 -16,-10 -25,-15z" class="c2"/>
<path d="M 7575, 6000c -2,2 -3,3 -5,5z" class="c14"/>
<path d="M 7575, 8040c -2,2 -3,3 -5,5z" class="c2"/>
<path d="M 7585, 5980c 5,-10 64,-64 -5,5z" class="c2"/>
<path d="M 7595, 8050c -2,2 -3,3 -5,5z" class="c2"/>
<path d="M 7615, 1730c -2,2 -3,3 -5,5z" class="c9"/>
<path d="M 7615, 8060c -2,2 -3,3 -5,5z" class="c2"/>
<path d="M 7625, 1740c -2,2 -3,3 -5,5z" class="c14"/>
<path d="M 7625, 5940c -2,2 -3,3 -5,5z" class="c6"/>
<path d="M 7625, 8060c -2,2 -3,3 -5,5z" class="c14"/>
<path d="M 7635, 1760c 18,36 31,23 -5,5z" class="c2"/>
<path d="M 7635, 5930c -2,2 -3,3 -5,5z" class="c12"/>
<path d="M 7635, 8070c -2,2 -3,3 -5,5z" class="c2"/>
<path d="M 7645, 5910c 9,-18 36,-36 -5,5z" class="c2"/>
<path d="M 7645, 5920c -2,2 -3,3 -5,5z" class="c15"/>
<path d="M 7645, 8070c -2,2 -3,3 -5,5z" class="c8"/>
<path d="M 7665, 1790c -2,2 -3,3 -5,5z" class="c11"/>
<path d="M 7665, 8080c -2,2 -3,3 -5,5z" class="c2"/>
<path d="M 7675, 1810c 9,18 13,14 -5,5z" class="c2"/>
<path d="M 7675, 5880c -2,2 -3,3 -5,5z" class="c11"/>
<path d="M 7685, 5860c 6,-13 13,-13 -5,5z" class="c2"/>
<path d="M 7685, 8090c -2,2 -3,3 -5,5z" class="c2"/>
<path d="M 7695, 1830c -2,2 -3,3 -5,5z" class="c5"/>
<path d="M 7705, 1840c -2,2 -3,3 -5,5z" class="c14"/>
<path d="M 7705, 5840c -2,2 -3,3 -5,5z" class="c5"/>
<path d="M 7705, 8100c -2,2 -3,3 -5,5z" class="c2"/>
<path d="M 7715, 1860c 9,18 13,14 -5,5z" class="c2"/>
<path d="M 7715, 5820c 9,-18 36,-36 -5,5z" class="c2"/>
<path d="M 7715, 5830c -2,2 -3,3 -5,5z" class="c15"/>
<path d="M 7715, 8100c -2,2 -3,3 -5,5z" class="c14"/>
<path d="M 7725, 8110c -2,2 -3,3 -5,5z" class="c2"/>
<path d="M 7735, 1880c -2,2 -3,3 -5,5z" class="c8"/>
<path d="M 7735, 8110c -2,2 -3,3 -5,5z" class="c9"/>
<path d="M 7745, 1900c 9,18 13,14 -5,5z" class="c2"/>
<path d="M 7745, 5790c -2,2 -3,3 -5,5z" class="c11"/>
<path d="M 7745, 8120c 23,0 1,5 -5,5z" class="c2"/>
<path d="M 7755, 5770c -2,2 -3,3 -5,5z" class="c2"/>
<path d="M 7765, 1920c -2,2 -3,3 -5,5z" class="c13"/>
<path d="M 7765, 1930c 9,18 13,14 -5,5z" class="c2"/>
<path d="M 7765, 5760c -2,2 -3,3 -5,5z" class="c3"/>
<path d="M 7775, 5740c 6,-13 13,-13 -5,5z" class="c2"/>
<path d="M 7775, 8130c -2,2 -3,3 -5,5z" class="c2"/>
<path d="M 7785, 1950c -2,2 -3,3 -5,5z" class="c8"/>
<path d="M 7795, 1970c 9,18 13,14 -5,5z" class="c2"/>
<path d="M 7795, 5710c 6,-13 13,-13 -5,5z" class="c2"/>
<path d="M 7795, 5720c -2,2 -3,3 -5,5z" class="c13"/>
<path d="M 7795, 8140c -2,2 -3,3 -5,5z" class="c2"/>
<path d="M 7815, 1990c -2,2 -3,3 -5,5z" class="c15"/>
<path d="M 7815, 2000c 9,18 13,14 -5,5z" class="c2"/>
<path d="M 7815, 5690c -2,2 -3,3 -5,5z" class="c8"/>
<path d="M 7815, 8150c -2,2 -3,3 -5,5z" class="c2"/>
<path d="M 7825, 5670c 6,-13 13,-13 -5,5z" class="c2"/>
<path d="M 7835, 2020c -2,2 -3,3 -5,5z" class="c13"/>
<path d="M 7835, 8160c -2,2 -3,3 -5,5z" class="c2"/>
<path d="M 7845, 2040c -2,2 -3,3 -5,5z" class="c2"/>
<path d="M 7845, 5640c -2,2 -3,3 -5,5z" class="c2"/>
<path d="M 7855, 2050c -2,2 -3,3 -5,5z" class="c15"/>
<path d="M 7855, 2060c 9,18 13,14 -5,5z" class="c2"/>
<path d="M 7855, 5630c -2,2 -3,3 -5,5z" class="c7"/>
<path d="M 7855, 8170c -2,2 -3,3 -5,5z" class="c2"/>
<path d="M 7865, 5610c -2,2 -3,3 -5,5z" class="c2"/>
<path d="M 7875, 2090c -2,2 -3,3 -5,5z" class="c2"/>
<path d="M 7875, 5590c 6,-13 13,-13 -5,5z" class="c2"/>
<path d="M 7875, 5600c -2,2 -3,3 -5,5z" class="c13"/>
<path d="M 7875, 8180c -2,2 -3,3 -5,5z" class="c2"/>
<path d="M 7885, 2100c -2,2 -3,3 -5,5z" class="c7"/>
<path d="M 7895, 2120c -2,2 -3,3 -5,5z" class="c2"/>
<path d="M 7895, 5560c -2,2 -3,3 -5,5z" class="c2"/>
<path d="M 7895, 8190c -2,2 -3,3 -5,5z" class="c2"/>
<path d="M 7905, 2130c -2,2 -3,3 -5,5z" class="c13"/>
<path d="M 7905, 2140c 9,18 13,14 -5,5z" class="c2"/>
<path d="M 7905, 5550c -2,2 -3,3 -5,5z" class="c7"/>
<path d="M 7915, 5530c -2,2 -3,3 -5,5z" class="c2"/>
<path d="M 7915, 8200c -2,2 -3,3 -5,5z" class="c2"/>
<path d="M 7925, 2160c -2,2 -3,3 -5,5z" class="c15"/>
<path d="M 7925, 2170c -2,2 -3,3 -5,5z" class="c2"/>
<path d="M 7925, 5510c 6,-13 13,-13 -5,5z" class="c2"/>
<path d="M 7925, 5520c -2,2 -3,3 -5,5z" class="c10"/>
<path d="M 7935, 2180c -2,2 -3,3 -5,5z" class="c9"/>
<path d="M 7935, 2190c 9,18 13,14 -5,5z" class="c2"/>
<path d="M 7935, 8210c -2,2 -3,3 -5,5z" class="c2"/>
<path d="M 7945, 5480c -2,2 -3,3 -5,5z" class="c2"/>
<path d="M 7955, 2220c -2,2 -3,3 -5,5z" class="c2"/>
<path d="M 7955, 5460c -2,2 -3,3 -5,5z" class="c2"/>
<path d="M 7955, 8220c -2,2 -3,3 -5,5z" class="c2"/>
<path d="M 7965, 2240c -2,2 -3,3 -5,5z" class="c2"/>
<path d="M 7965, 5440c -2,2 -3,3 -5,5z" class="c2"/>
<path d="M 7965, 5450c -2,2 -3,3 -5,5z" class="c13"/>
<path d="M 7975, 2250c -2,2 -3,3 -5,5z" class="c13"/>
<path d="M 7975, 2260c -2,2 -3,3 -5,5z" class="c2"/>
<path d="M 7975, 5430c -2,2 -3,3 -5,5z" class="c6"/>
<path d="M 7975, 8230c -2,2 -3,3 -5,5z" class="c2"/>
<path d="M 7985, 2270c -2,2 -3,3 -5,5z" class="c6"/>
<path d="M 7985, 5410c -2,2 -3,3 -5,5z" class="c2"/>
<path d="M 7995, 2290c -2,2 -3,3 -5,5z" class="c2"/>
<path d="M 7995, 5390c -2,2 -3,3 -5,5z" class="c2"/>
<path d="M 7995, 8240c -2,2 -3,3 -5,5z" class="c4"/>
<path d="M 8005, 2310c -2,2 -3,3 -5,5z" class="c2"/>
<path d="M 8005, 5370c -2,2 -3,3 -5,5z" class="c2"/>
<path d="M 8005, 5380c -2,2 -3,3 -5,5z" class="c15"/>
<path d="M 8005, 8250c -2,2 -3,3 -5,5z" class="c2"/>
<path d="M 8015, 2330c -2,2 -3,3 -5,5z" class="c2"/>
<path d="M 8015, 5350c -2,2 -3,3 -5,5z" class="c2"/>
<path d="M 8015, 5360c -2,2 -3,3 -5,5z" class="c15"/>
<path d="M 8015, 8250c -2,2 -3,3 -5,5z" class="c12"/>
<path d="M 8025, 2350c -2,2 -3,3 -5,5z" class="c2"/>
<path d="M 8025, 5330c -2,2 -3,3 -5,5z" class="c2"/>
<path d="M 8025, 5340c -2,2 -3,3 -5,5z" class="c15"/>
<path d="M 8025, 8260c -2,2 -3,3 -5,5z" class="c2"/>
<path d="M 8035, 2370c -2,2 -3,3 -5,5z" class="c2"/>
<path d="M 8035, 5310c -2,2 -3,3 -5,5z" class="c2"/>
<path d="M 8035, 5320c -2,2 -3,3 -5,5z" class="c15"/>
<path d="M 8035, 8260c -2,2 -3,3 -5,5z" class="c15"/>
<path d="M 8045, 2390c -2,2 -3,3 -5,5z" class="c2"/>
<path d="M 8045, 5290c -2,2 -3,3 -5,5z" class="c2"/>
<path d="M 8045, 5300c -2,2 -3,3 -5,5z" class="c15"/>
<path d="M 8045, 8270c -2,2 -3,3 -5,5z" class="c2"/>
<path d="M 8055, 2400c -2,2 -3,3 -5,5z" class="c16"/>
<path d="M 8055, 2410c -2,2 -3,3 -5,5z" class="c2"/>
<path d="M 8055, 5270c -2,2 -3,3 -5,5z" class="c2"/>
<path d="M 8055, 5280c -2,2 -3,3 -5,5z" class="c15"/>
<path d="M 8065, 2420c -2,2 -3,3 -5,5z" class="c16"/>
<path d="M 8065, 2430c -2,2 -3,3 -5,5z" class="c2"/>
<path d="M 8065, 5250c -2,2 -3,3 -5,5z" class="c2"/>
<path d="M 8065, 5260c -2,2 -3,3 -5,5z" class="c15"/>
<path d="M 8065, 8280c -2,2 -3,3 -5,5z" class="c2"/>
<path d="M 8075, 2440c -2,2 -3,3 -5,5z" class="c16"/>
<path d="M 8075, 2450c -2,2 -3,3 -5,5z" class="c2"/>
<path d="M 8075, 5230c -2,2 -3,3 -5,5z" class="c2"/>
<path d="M 8075, 5240c -2,2 -3,3 -5,5z" class="c15"/>
<path d="M 8085, 2470c -2,2 -3,3 -5,5z" class="c2"/>
<path d="M 8085, 5210c -2,2 -3,3 -5,5z" class="c2"/>
<path d="M 8085, 8290c -2,2 -3,3 -5,5z" class="c4"/>
<path d="M 8095, 2490c -2,2 -3,3 -5,5z" class="c7"/>
<path d="M 8095, 2500c -2,2 -3,3 -5,5z" class="c2"/>
<path d="M 8095, 5190c -2,2 -3,3 -5,5z" class="c2"/>
<path d="M 8095, 8300c -2,2 -3,3 -5,5z" class="c2"/>
<path d="M 8105, 2510c -2,2 -3,3 -5,5z" class="c14"/>
<path d="M 8105, 2520c -2,2 -3,3 -5,5z" class="c2"/>
<path d="M 8105, 5160c -2,2 -3,3 -5,5z" class="c2"/>
<path d="M 8105, 5170c -2,2 -3,3 -5,5z" class="c8"/>
<path d="M 8105, 8300c -2,2 -3,3 -5,5z" class="c10"/>
<path d="M 8115, 2540c -2,2 -3,3 -5,5z" class="c2"/>
<path d="M 8115, 5140c -2,2 -3,3 -5,5z" class="c2"/>
<path d="M 8115, 5150c -2,2 -3,3 -5,5z" class="c14"/>
<path d="M 8115, 8310c -2,2 -3,3 -5,5z" class="c2"/>
<path d="M 8125, 2560c -2,2 -3,3 -5,5z" class="c2"/>
<path d="M 8125, 5120c -2,2 -3,3 -5,5z" class="c2"/>
<path d="M 8125, 8310c -2,2 -3,3 -5,5z" class="c15"/>
<path d="M 8135, 2580c -2,2 -3,3 -5,5z" class="c7"/>
<path d="M 8135, 2590c -2,2 -3,3 -5,5z" class="c2"/>
<path d="M 8135, 5100c -2,2 -3,3 -5,5z" class="c2"/>
<path d="M 8135, 8320c -2,2 -3,3 -5,5z" class="c2"/>
<path d="M 8145, 2600c -2,2 -3,3 -5,5z" class="c16"/>
<path d="M 8145, 2610c -2,2 -3,3 -5,5z" class="c2"/>
<path d="M 8145, 5070c -2,2 -3,3 -5,5z" class="c2"/>
<path d="M 8145, 5080c -2,2 -3,3 -5,5z" class="c14"/>
<path d="M 8155, 2630c -2,2 -3,3 -5,5z" class="c11"/>
<path d="M 8155, 2640c -2,2 -3,3 -5,5z" class="c2"/>
<path d="M 8155, 5040c 0,6 -5,28 -5,5z" class="c2"/>
<path d="M 8155, 8330c -2,2 -3,3 -5,5z" class="c2"/>
<path d="M 8165, 2660c -2,2 -3,3 -5,5z" class="c2"/>
<path d="M 8165, 5020c -2,2 -3,3 -5,5z" class="c2"/>
<path d="M 8165, 5030c -2,2 -3,3 -5,5z" class="c16"/>
<path d="M 8175, 2680c -2,2 -3,3 -5,5z" class="c14"/>
<path d="M 8175, 2690c -2,2 -3,3 -5,5z" class="c2"/>
<path d="M 8175, 4990c -2,2 -3,3 -5,5z" class="c2"/>
<path d="M 8175, 5000c -2,2 -3,3 -5,5z" class="c11"/>
<path d="M 8175, 8340c -2,2 -3,3 -5,5z" class="c4"/>
<path d="M 8185, 2710c 0,6 -5,28 -5,5z" class="c2"/>
<path d="M 8185, 4970c -2,2 -3,3 -5,5z" class="c2"/>
<path d="M 8185, 8350c -2,2 -3,3 -5,5z" class="c2"/>
<path d="M 8195, 2730c -2,2 -3,3 -5,5z" class="c16"/>
<path d="M 8195, 2740c -2,2 -3,3 -5,5z" class="c2"/>
<path d="M 8195, 4940c -2,2 -3,3 -5,5z" class="c2"/>
<path d="M 8195, 4950c -2,2 -3,3 -5,5z" class="c14"/>
<path d="M 8195, 8350c -2,2 -3,3 -5,5z" class="c14"/>
<path d="M 8205, 2760c -2,2 -3,3 -5,5z" class="c13"/>
<path d="M 8205, 2770c -2,2 -3,3 -5,5z" class="c2"/>
<path d="M 8205, 4910c -2,2 -3,3 -5,5z" class="c2"/>
<path d="M 8205, 4920c -2,2 -3,3 -5,5z" class="c14"/>
<path d="M 8205, 8360c -2,2 -3,3 -5,5z" class="c2"/>
<path d="M 8215, 2790c -2,2 -3,3 -5,5z" class="c13"/>
<path d="M 8215, 2800c -2,2 -3,3 -5,5z" class="c2"/>
<path d="M 8215, 4880c -2,2 -3,3 -5,5z" class="c2"/>
<path d="M 8215, 4890c -2,2 -3,3 -5,5z" class="c14"/>
<path d="M 8225, 2820c -2,2 -3,3 -5,5z" class="c13"/>
<path d="M 8225, 2830c -2,2 -3,3 -5,5z" class="c2"/>
<path d="M 8225, 4850c -2,2 -3,3 -5,5z" class="c2"/>
<path d="M 8225, 4860c -2,2 -3,3 -5,5z" class="c14"/>
<path d="M 8225, 8370c -2,2 -3,3 -5,5z" class="c7"/>
<path d="M 8235, 2850c -2,2 -3,3 -5,5z" class="c13"/>
<path d="M 8235, 2860c -2,2 -3,3 -5,5z" class="c2"/>
<path d="M 8235, 4820c -2,2 -3,3 -5,5z" class="c2"/>
<path d="M 8235, 4830c -2,2 -3,3 -5,5z" class="c14"/>
<path d="M 8235, 8380c -2,2 -3,3 -5,5z" class="c2"/>
<path d="M 8245, 2880c -2,2 -3,3 -5,5z" class="c13"/>
<path d="M 8245, 2890c -2,2 -3,3 -5,5z" class="c2"/>
<path d="M 8245, 4790c -2,2 -3,3 -5,5z" class="c2"/>
<path d="M 8245, 4800c -2,2 -3,3 -5,5z" class="c14"/>
<path d="M 8245, 8380c -2,2 -3,3 -5,5z" class="c16"/>
<path d="M 8255, 2920c 0,6 -5,28 -5,5z" class="c2"/>
<path d="M 8255, 4750c 0,6 -5,28 -5,5z" class="c2"/>
<path d="M 8255, 8390c 9,18 13,14 -5,5z" class="c2"/>
<path d="M 8265, 2950c -2,2 -3,3 -5,5z" class="c16"/>
<path d="M 8265, 2960c 0,6 -5,28 -5,5z" class="c2"/>
<path d="M 8265, 4710c 0,6 -5,28 -5,5z" class="c2"/>
<path d="M 8265, 4730c -2,2 -3,3 -5,5z" class="c13"/>
<path d="M 8275, 2990c -2,2 -3,3 -5,5z" class="c8"/>
<path d="M 8275, 3000c -2,2 -3,3 -5,5z" class="c2"/>
<path d="M 8275, 4680c -2,2 -3,3 -5,5z" class="c2"/>
<path d="M 8275, 4690c -2,2 -3,3 -5,5z" class="c9"/>
<path d="M 8275, 8400c -2,2 -3,3 -5,5z" class="c9"/>
<path d="M 8285, 3030c 0,6 -5,28 -5,5z" class="c2"/>
<path d="M 8285, 4640c 0,6 -5,28 -5,5z" class="c2"/>
<path d="M 8285, 4660c -2,2 -3,3 -5,5z" class="c16"/>
<path d="M 8285, 8410c -2,2 -3,3 -5,5z" class="c2"/>
<path d="M 8295, 3070c 0,6 -5,28 -5,5z" class="c2"/>
<path d="M 8295, 4600c 0,6 -5,28 -5,5z" class="c2"/>
<path d="M 8295, 4620c -2,2 -3,3 -5,5z" class="c15"/>
<path d="M 8305, 3110c -2,2 -3,3 -5,5z" class="c12"/>
<path d="M 8305, 3120c 0,6 -5,28 -5,5z" class="c2"/>
<path d="M 8305, 4550c 0,6 -5,28 -5,5z" class="c2"/>
<path d="M 8305, 4570c -2,2 -3,3 -5,5z" class="c7"/>
<path d="M 8305, 8420c 9,18 13,14 -5,5z" class="c2"/>
<path d="M 8315, 3150c -2,2 -3,3 -5,5z" class="c15"/>
<path d="M 8315, 3160c 0,6 -5,28 -5,5z" class="c2"/>
<path d="M 8315, 4510c 0,6 -5,28 -5,5z" class="c2"/>
<path d="M 8315, 4530c -2,2 -3,3 -5,5z" class="c15"/>
<path d="M 8325, 3200c -2,2 -3,3 -5,5z" class="c12"/>
<path d="M 8325, 3210c 0,6 -5,28 -5,5z" class="c2"/>
<path d="M 8325, 4460c 0,6 -5,28 -5,5z" class="c2"/>
<path d="M 8325, 4480c -2,2 -3,3 -5,5z" class="c3"/>
<path d="M 8325, 8430c -2,2 -3,3 -5,5z" class="c13"/>
<path d="M 8335, 3260c -2,2 -3,3 -5,5z" class="c3"/>
<path d="M 8335, 3270c 0,6 -5,28 -5,5z" class="c2"/>
<path d="M 8335, 4400c 0,21 -5,34 -5,5z" class="c2"/>
<path d="M 8335, 4430c -2,2 -3,3 -5,5z" class="c15"/>
<path d="M 8335, 8440c -2,2 -3,3 -5,5z" class="c2"/>
<path d="M 8345, 3310c -2,2 -3,3 -5,5z" class="c15"/>
<path d="M 8345, 3320c 0,21 -5,34 -5,5z" class="c2"/>
<path d="M 8345, 4340c 0,21 -5,34 -5,5z" class="c2"/>
<path d="M 8345, 4370c -2,2 -3,3 -5,5z" class="c15"/>
<path d="M 8355, 3370c -2,2 -3,3 -5,5z" class="c14"/>
<path d="M 8355, 3380c 0,2 -1,39 -5,35c -3,-3 0,-26 0,-30z" class="c2"/>
<path d="M 8355, 4270c 0,2 -1,39 -5,35c -3,-3 0,-26 0,-30z" class="c2"/>
<path d="M 8355, 4310c -2,2 -3,3 -5,5z" class="c14"/>
<path d="M 8355, 8450c -2,2 -3,3 -5,5z" class="c3"/>
<path d="M 8365, 3450c -2,2 -3,3 -5,5z" class="c14"/>
<path d="M 8365, 3460c 0,2 -1,39 -5,35c -3,-3 0,-26 0,-30z" class="c2"/>
<path d="M 8365, 4190c 0,2 -1,39 -5,35c -3,-3 0,-26 0,-30z" class="c2"/>
<path d="M 8365, 4230c -2,2 -3,3 -5,5z" class="c14"/>
<path d="M 8365, 8460c -2,2 -3,3 -5,5z" class="c2"/>
<path d="M 8375, 3550c -2,2 -3,3 -5,5z" class="c8"/>
<path d="M 8375, 3560c 0,45 -5,90 -5,5z" class="c2"/>
<path d="M 8375, 4070c 0,45 -5,90 -5,5z" class="c2"/>
<path d="M 8375, 4130c -2,2 -3,3 -5,5z" class="c8"/>
<path d="M 8375, 8460c -2,2 -3,3 -5,5z" class="c15"/>
<path d="M 8385, 3690c -2,2 -3,3 -5,5z" class="c15"/>
<path d="M 8385, 3700c 0,6 -5,28 -5,5z" class="c13"/>
<path d="M 8385, 3720c -2,2 -3,3 -5,5z" class="c11"/>
<path d="M 8385, 3730c -2,2 -3,3 -5,5z" class="c10"/>
<path d="M 8385, 3740c -2,2 -3,3 -5,5z" class="c8"/>
<path d="M 8385, 3750c -2,2 -3,3 -5,5z" class="c6"/>
<path d="M 8385, 3760c -2,2 -3,3 -5,5z" class="c5"/>
<path d="M 8385, 3770c 0,6 -5,28 -5,5z" class="c4"/>
<path d="M 8385, 3790c 0,30 0,60 0,90c 0,5 -1,19 -5,15c -10,-10 0,-84 0,-100z" class="c2"/>
<path d="M 8385, 3900c 0,6 -5,28 -5,5z" class="c4"/>
<path d="M 8385, 3920c -2,2 -3,3 -5,5z" class="c5"/>
<path d="M 8385, 3930c -2,2 -3,3 -5,5z" class="c6"/>
<path d="M 8385, 3940c -2,2 -3,3 -5,5z" class="c8"/>
<path d="M 8385, 3950c 0,6 -5,28 -5,5z" class="c10"/>
<path d="M 8385, 3970c -2,2 -3,3 -5,5z" class="c11"/>
<path d="M 8385, 3980c -2,2 -3,3 -5,5z" class="c13"/>
<path d="M 8385, 3990c -2,2 -3,3 -5,5z" class="c15"/>
<path d="M 8385, 8470c 9,18 13,14 -5,5z" class="c2"/>
<path d="M 8405, 8480c -2,2 -3,3 -5,5z" class="c16"/>
<path d="M 8415, 8490c -2,2 -3,3 -5,5z" class="c4"/>
<path d="M 8425, 8500c -2,2 -3,3 -5,5z" class="c2"/>
<path d="M 8445, 8510c -2,2 -3,3 -5,5z" class="c6"/>
<path d="M 8455, 8520c -2,2 -3,3 -5,5z" class="c2"/>
<path d="M 8475, 8530c -2,2 -3,3 -5,5z" class="c8"/>
<path d="M 8485, 8540c -2,2 -3,3 -5,5z" class="c2"/>
<path d="M 8505, 8550c -2,2 -3,3 -5,5z" class="c11"/>
<path d="M 8515, 8560c -2,2 -3,3 -5,5z" class="c2"/>
<path d="M 8535, 8570c -2,2 -3,3 -5,5z" class="c12"/>
<path d="M 8545, 8580c 9,18 13,14 -5,5z" class="c2"/>
<path d="M 8565, 8590c -2,2 -3,3 -5,5z" class="c12"/>
<path d="M 8575, 8600c 9,18 13,14 -5,5z" class="c2"/>
<path d="M 8605, 8620c -2,2 -3,3 -5,5z" class="c13"/>
<path d="M 8615, 8630c 18,36 31,23 -5,5z" class="c2"/>
<path d="M 8645, 8650c -2,2 -3,3 -5,5z" class="c15"/>
<path d="M 8655, 8660c -2,2 -3,3 -5,5z" class="c3"/>
<path d="M 8665, 8670c 9,18 13,14 -5,5z" class="c2"/>
<path d="M 8685, 8680c -2,2 -3,3 -5,5z" class="c16"/>
<path d="M 8695, 8690c -2,2 -3,3 -5,5z" class="c7"/>
<path d="M 8705, 8700c 9,18 13,14 -5,5z" class="c2"/>
<path d="M 8735, 8720c -2,2 -3,3 -5,5z" class="c10"/>
<path d="M 8745, 8730c 18,36 31,23 -5,5z" class="c2"/>
<path d="M 8785, 8760c -2,2 -3,3 -5,5z" class="c13"/>
<path d="M 8795, 8770c -2,2 -3,3 -5,5z" class="c4"/>
<path d="M 8805, 8780c 18,36 31,23 -5,5z" class="c2"/>
<path d="M 8845, 8810c -2,2 -3,3 -5,5z" class="c11"/>
<path d="M 8855, 8820c -2,2 -3,3 -5,5z" class="c4"/>
<path d="M 8865, 8830c 18,36 31,23 -5,5z" class="c2"/>
<path d="M 8895, 8850c -2,2 -3,3 -5,5z" class="c16"/>
<path d="M 8905, 8860c -2,2 -3,3 -5,5z" class="c11"/>
<path d="M 8915, 8870c 2,4 73,83 35,45c -14,-14 -22,-31 -40,-40z" class="c2"/>
<path d="M 8985, 8930c -2,2 -3,3 -5,5z" class="c16"/>
<path d="M 8995, 8940c -2,2 -3,3 -5,5z" class="c13"/>
<path d="M 9005, 8950c -2,2 -3,3 -5,5z" class="c8"/>
<path d="M 9015, 8960c -2,2 -3,3 -5,5z" class="c5"/>
<path d="M 9025, 8970c 13,25 234,231 230,235c -4,4 -210,-217 -235,-230z" class="c2"/>
<path d="M 9265, 9210c -2,2 -3,3 -5,5z" class="c4"/>
<path d="M 9275, 9220c -2,2 -3,3 -5,5z" class="c9"/>
<path d="M 9285, 9230c -2,2 -3,3 -5,5z" class="c14"/>
<path d="M 9295, 9250c 8,17 52,53 35,45c -15,-7 -23,-31 -40,-40z" class="c2"/>
<path d="M 9345, 9300c -2,2 -3,3 -5,5z" class="c6"/>
<path d="M 9355, 9310c -2,2 -3,3 -5,5z" class="c12"/>
<path d="M 9365, 9320c -2,2 -3,3 -5,5z" class="c15"/>
<path d="M 9375, 9340c 18,36 31,23 -5,5z" class="c2"/>
<path d="M 9405, 9370c -2,2 -3,3 -5,5z" class="c9"/>
<path d="M 9415, 9380c -2,2 -3,3 -5,5z" class="c15"/>
<path d="M 9415, 9390c 18,36 31,23 -5,5z" class="c2"/>
<path d="M 9445, 9420c -2,2 -3,3 -5,5z" class="c9"/>
<path d="M 9455, 9430c -2,2 -3,3 -5,5z" class="c15"/>
<path d="M 9455, 9440c 18,36 31,23 -5,5z" class="c2"/>
<path d="M 9485, 9470c -2,2 -3,3 -5,5z" class="c5"/>
<path d="M 9495, 9480c -2,2 -3,3 -5,5z" class="c15"/>
<path d="M 9495, 9490c 18,36 31,23 -5,5z" class="c2"/>
<path d="M 9525, 9520c -2,2 -3,3 -5,5z" class="c11"/>
<path d="M 9535, 9540c 9,18 13,14 -5,5z" class="c2"/>
<path d="M 9555, 9560c -2,2 -3,3 -5,5z" class="c15"/>
<path d="M 9555, 9570c 9,18 13,14 -5,5z" class="c2"/>
<path d="M 9575, 9590c -2,2 -3,3 -5,5z" class="c8"/>
<path d="M 9585, 9610c 9,18 13,14 -5,5z" class="c2"/>
<path d="M 9605, 9630c -2,2 -3,3 -5,5z" class="c11"/>
<path d="M 9615, 9650c 9,18 13,14 -5,5z" class="c2"/>
<path d="M 9635, 9670c -2,2 -3,3 -5,5z" class="c13"/>
<path d="M 9635, 9680c 9,18 13,14 -5,5z" class="c2"/>
<path d="M 9655, 9700c -2,2 -3,3 -5,5z" class="c15"/>
<path d="M 9655, 9710c 9,18 13,14 -5,5z" class="c2"/>
<path d="M 9675, 9740c -2,2 -3,3 -5,5z" class="c2"/>
<path d="M 9685, 9750c -2,2 -3,3 -5,5z" class="c7"/>
<path d="M 9695, 9770c -2,2 -3,3 -5,5z" class="c2"/>
<path d="M 9705, 9780c -2,2 -3,3 -5,5z" class="c10"/>
<path d="M 9715, 9800c -2,2 -3,3 -5,5z" class="c2"/>
<path d="M 9725, 9810c -2,2 -3,3 -5,5z" class="c13"/>
<path d="M 9725, 9820c 9,18 13,14 -5,5z" class="c2"/>
<path d="M 9745, 9850c -2,2 -3,3 -5,5z" class="c2"/>
<path d="M 9755, 9860c -2,2 -3,3 -5,5z" class="c9"/>
<path d="M 9755, 9870c 9,18 13,14 -5,5z" class="c2"/>
<path d="M 9775, 9900c -2,2 -3,3 -5,5z" class="c2"/>
<path d="M 9785, 9920c -2,2 -3,3 -5,5z" class="c2"/>
<path d="M 9795, 9930c -2,2 -3,3 -5,5z" class="c12"/>
<path d="M 9795, 9940c -2,2 -3,3 -5,5z" class="c2"/>
<path d="M 9805, 9950c -2,2 -3,3 -5,5z" class="c5"/>
<path d="M 9815, 9970c -2,2 -3,3 -5,5z" class="c2"/>
<path d="M 9825, 9990c -2,2 -3,3 -5,5z" class="c2"/>
<path d="M 9835, 10010c -2,2 -3,3 -5,5z" class="c2"/>
<path d="M 9845, 10020c -2,2 -3,3 -5,5z" class="c12"/>
<path d="M 9845, 10030c -2,2 -3,3 -5,5z" class="c2"/>
<path d="M 9855, 10040c -2,2 -3,3 -5,5z" class="c5"/>
<path d="M 9855, 10050c -2,2 -3,3 -5,5z" class="c2"/>
<path d="M 9865, 10060c -2,2 -3,3 -5,5z" class="c3"/>
<path d="M 9875, 10080c -2,2 -3,3 -5,5z" class="c3"/>
<path d="M 9885, 10100c -2,2 -3,3 -5,5z" class="c3"/>
<path d="M 9895, 10120c -2,2 -3,3 -5,5z" class="c3"/>
<path d="M 9905, 10140c -2,2 -3,3 -5,5z" class="c4"/>
<path d="M 9905, 10150c -2,2 -3,3 -5,5z" class="c2"/>
<path d="M 9915, 10160c -2,2 -3,3 -5,5z" class="c8"/>
<path d="M 9915, 10170c -2,2 -3,3 -5,5z" class="c2"/>
<path d="M 9925, 10180c -2,2 -3,3 -5,5z" class="c12"/>
<path d="M 9925, 10190c -2,2 -3,3 -5,5z" class="c2"/>
<path d="M 9935, 10200c -2,2 -3,3 -5,5z" class="c14"/>
<path d="M 9935, 10210c -2,2 -3,3 -5,5z" class="c2"/>
<path d="M 9945, 10220c -2,2 -3,3 -5,5z" class="c16"/>
<path d="M 9945, 10230c -2,2 -3,3 -5,5z" class="c2"/>
</g>
</svg>